<?xml version="1.0" encoding="UTF-8" standalone="no"?>
<svg width="178.506mm" height="104.422mm"
 viewBox="0 0 506 296"
 xmlns="http://www.w3.org/2000/svg" xmlns:xlink="http://www.w3.org/1999/xlink"  version="1.2" baseProfile="tiny">
<defs>
</defs>
<g fill="none" stroke="black" stroke-width="1" fill-rule="evenodd" stroke-linecap="square" stroke-linejoin="bevel" >

<g fill="#ffffff" fill-opacity="1" stroke="none" transform="matrix(1,0,0,1,0,0)"
font-family="Cantarell" font-size="11" font-weight="400" font-style="normal" 
>
<rect x="0" y="0" width="506" height="296"/>
</g>

<g fill="none" stroke="#000000" stroke-opacity="1" stroke-width="1" stroke-linecap="square" stroke-linejoin="bevel" transform="matrix(1,0,0,1,0,0)"
font-family="Cantarell" font-size="11" font-weight="400" font-style="normal" 
>
</g>

<g fill="none" stroke="#000000" stroke-opacity="1" stroke-width="1" stroke-linecap="square" stroke-linejoin="bevel" transform="matrix(1,0,0,1,0,0)"
font-family="Cantarell" font-size="11" font-weight="400" font-style="normal" 
>
</g>

<g fill="none" stroke="#000000" stroke-opacity="1" stroke-width="1" stroke-linecap="square" stroke-linejoin="bevel" transform="matrix(1,0,0,1,0,0)"
font-family="Cantarell" font-size="11" font-weight="400" font-style="normal" 
>
</g>

<g fill="none" stroke="#000000" stroke-opacity="1" stroke-width="1" stroke-linecap="square" stroke-linejoin="bevel" transform="matrix(1,0,0,1,0,0)"
font-family="Cantarell" font-size="11" font-weight="400" font-style="normal" 
>
</g>

<g fill="#ffffff" fill-opacity="1" stroke="none" transform="matrix(1,0,0,1,0,0)"
font-family="Cantarell" font-size="11" font-weight="400" font-style="normal" 
>
<rect x="68" y="15" width="423" height="254"/>
</g>

<g fill="none" stroke="#000000" stroke-opacity="1" stroke-width="1" stroke-linecap="square" stroke-linejoin="bevel" transform="matrix(1,0,0,1,0,0)"
font-family="Cantarell" font-size="11" font-weight="400" font-style="normal" 
>
</g>

<g fill="none" stroke="#000000" stroke-opacity="1" stroke-width="1" stroke-linecap="square" stroke-linejoin="bevel" transform="matrix(1,0,0,1,0,0)"
font-family="Cantarell" font-size="11" font-weight="400" font-style="normal" 
>
</g>

<g fill="none" stroke="none" transform="matrix(1,0,0,1,0,0)"
font-family="Cantarell" font-size="11" font-weight="400" font-style="normal" 
>
<polyline fill="none" vector-effect="none" points="138.5,268 138.5,15 " />
<polyline fill="none" vector-effect="none" points="420.5,268 420.5,15 " />
</g>

<g fill="none" stroke="#000000" stroke-opacity="1" stroke-width="1" stroke-linecap="square" stroke-linejoin="bevel" transform="matrix(1,0,0,1,0,0)"
font-family="Cantarell" font-size="11" font-weight="400" font-style="normal" 
>
</g>

<g fill="none" stroke="#000000" stroke-opacity="1" stroke-width="1" stroke-linecap="square" stroke-linejoin="bevel" transform="matrix(1,0,0,1,0,0)"
font-family="Cantarell" font-size="11" font-weight="400" font-style="normal" 
>
</g>

<g fill="none" stroke="#dcdcdc" stroke-opacity="1" stroke-dasharray="2,1" stroke-dashoffset="0" stroke-width="0.5" stroke-linecap="square" stroke-linejoin="bevel" transform="matrix(1,0,0,1,0,0)"
font-family="Cantarell" font-size="11" font-weight="400" font-style="normal" 
>
<polyline fill="none" vector-effect="none" points="68,258.929 490,258.929 " />
<polyline fill="none" vector-effect="none" points="68,249.857 490,249.857 " />
<polyline fill="none" vector-effect="none" points="68,240.786 490,240.786 " />
<polyline fill="none" vector-effect="none" points="68,231.714 490,231.714 " />
<polyline fill="none" vector-effect="none" points="68,213.571 490,213.571 " />
<polyline fill="none" vector-effect="none" points="68,204.5 490,204.5 " />
<polyline fill="none" vector-effect="none" points="68,195.429 490,195.429 " />
<polyline fill="none" vector-effect="none" points="68,186.357 490,186.357 " />
<polyline fill="none" vector-effect="none" points="68,168.214 490,168.214 " />
<polyline fill="none" vector-effect="none" points="68,159.143 490,159.143 " />
<polyline fill="none" vector-effect="none" points="68,150.071 490,150.071 " />
<polyline fill="none" vector-effect="none" points="68,141 490,141 " />
<polyline fill="none" vector-effect="none" points="68,122.857 490,122.857 " />
<polyline fill="none" vector-effect="none" points="68,113.786 490,113.786 " />
<polyline fill="none" vector-effect="none" points="68,104.714 490,104.714 " />
<polyline fill="none" vector-effect="none" points="68,95.6429 490,95.6429 " />
<polyline fill="none" vector-effect="none" points="68,77.5 490,77.5 " />
<polyline fill="none" vector-effect="none" points="68,68.4286 490,68.4286 " />
<polyline fill="none" vector-effect="none" points="68,59.3571 490,59.3571 " />
<polyline fill="none" vector-effect="none" points="68,50.2857 490,50.2857 " />
<polyline fill="none" vector-effect="none" points="68,32.1429 490,32.1429 " />
<polyline fill="none" vector-effect="none" points="68,23.0714 490,23.0714 " />
<polyline fill="none" vector-effect="none" points="68,14 490,14 " />
</g>

<g fill="none" stroke="#c8c8c8" stroke-opacity="1" stroke-width="1" stroke-linecap="square" stroke-linejoin="bevel" transform="matrix(1,0,0,1,0,0)"
font-family="Cantarell" font-size="11" font-weight="400" font-style="normal" 
>
<polyline fill="none" vector-effect="none" points="68,268 490,268 " />
<polyline fill="none" vector-effect="none" points="68,222.643 490,222.643 " />
<polyline fill="none" vector-effect="none" points="68,177.286 490,177.286 " />
<polyline fill="none" vector-effect="none" points="68,131.929 490,131.929 " />
<polyline fill="none" vector-effect="none" points="68,86.5714 490,86.5714 " />
<polyline fill="none" vector-effect="none" points="68,41.2143 490,41.2143 " />
</g>

<g fill="none" stroke="#000000" stroke-opacity="1" stroke-width="1" stroke-linecap="square" stroke-linejoin="bevel" transform="matrix(1,0,0,1,0,0)"
font-family="Cantarell" font-size="11" font-weight="400" font-style="normal" 
>
</g>

<g fill="none" stroke="#000000" stroke-opacity="1" stroke-width="1" stroke-linecap="square" stroke-linejoin="bevel" transform="matrix(1,0,0,1,0,0)"
font-family="Cantarell" font-size="11" font-weight="400" font-style="normal" 
>
</g>

<g fill="none" stroke="#000000" stroke-opacity="1" stroke-width="1.5" stroke-linecap="butt" stroke-linejoin="bevel" transform="matrix(1,0,0,1,0,0)"
font-family="Cantarell" font-size="11" font-weight="400" font-style="normal" 
>
<polyline fill="none" vector-effect="none" points="138.5,203.77 138.5,197.842 " />
<polyline fill="none" vector-effect="none" points="138.5,207.77 138.5,213.698 " />
<polyline fill="none" vector-effect="none" points="130.5,197.842 146.5,197.842 " />
<polyline fill="none" vector-effect="none" points="130.5,213.698 146.5,213.698 " />
<polyline fill="none" vector-effect="none" points="412.5,17.5923 428.5,17.5923 " />
<polyline fill="none" vector-effect="none" points="412.5,20.2049 428.5,20.2049 " />
</g>

<g fill="none" stroke="#000000" stroke-opacity="1" stroke-width="1" stroke-linecap="square" stroke-linejoin="bevel" transform="matrix(1,0,0,1,0,0)"
font-family="Cantarell" font-size="11" font-weight="400" font-style="normal" 
>
</g>

<g fill="none" stroke="#000000" stroke-opacity="1" stroke-width="1" stroke-linecap="square" stroke-linejoin="bevel" transform="matrix(1,0,0,1,0,0)"
font-family="Cantarell" font-size="11" font-weight="400" font-style="normal" 
>
</g>

<g fill="#f27c18" fill-opacity="0.392157" stroke="#f27c18" stroke-opacity="1" stroke-width="1" stroke-linecap="square" stroke-linejoin="bevel" transform="matrix(1,0,0,1,0,0)"
font-family="Cantarell" font-size="11" font-weight="400" font-style="normal" 
>
<path vector-effect="none" fill-rule="evenodd" d="M110.3,205.77 L166.7,205.77 L166.7,268 L110.3,268 L110.3,205.77"/>
</g>

<g fill="#f27c18" fill-opacity="0.392157" stroke="#f27c18" stroke-opacity="1" stroke-width="1" stroke-linecap="square" stroke-linejoin="bevel" transform="matrix(1,0,0,1,0,0)"
font-family="Cantarell" font-size="11" font-weight="400" font-style="normal" 
>
<path vector-effect="none" fill-rule="evenodd" d="M392.3,18.8986 L448.7,18.8986 L448.7,268 L392.3,268 L392.3,18.8986"/>
</g>

<g fill="none" stroke="#000000" stroke-opacity="1" stroke-width="1" stroke-linecap="square" stroke-linejoin="bevel" transform="matrix(1,0,0,1,0,0)"
font-family="Cantarell" font-size="11" font-weight="400" font-style="normal" 
>
</g>

<g fill="none" stroke="#000000" stroke-opacity="1" stroke-width="1" stroke-linecap="square" stroke-linejoin="bevel" transform="matrix(1,0,0,1,0,0)"
font-family="Cantarell" font-size="11" font-weight="400" font-style="normal" 
>
</g>

<g fill="none" stroke="#000000" stroke-opacity="1" stroke-width="1" stroke-linecap="square" stroke-linejoin="bevel" transform="matrix(1,0,0,1,0,0)"
font-family="Cantarell" font-size="11" font-weight="400" font-style="normal" 
>
<polyline fill="none" vector-effect="non-scaling-stroke" points="68,268 491,268 " />
<polyline fill="none" vector-effect="non-scaling-stroke" points="138.5,268 138.5,263 " />
<polyline fill="none" vector-effect="non-scaling-stroke" points="420.5,268 420.5,263 " />
</g>

<g fill="#000000" fill-opacity="1" stroke="#000000" stroke-opacity="1" stroke-width="1" stroke-linecap="square" stroke-linejoin="bevel" transform="matrix(1,0,0,1,82.5,271)"
font-family="Cantarell" font-size="11.05" font-weight="400" font-style="normal" 
>
<text fill="#000000" fill-opacity="1" stroke="none" xml:space="preserve" x="0.203125" y="11" font-family="Cantarell" font-size="11.05" font-weight="400" font-style="normal" 
 >Structure de Référence</text>
</g>

<g fill="#000000" fill-opacity="1" stroke="#000000" stroke-opacity="1" stroke-width="1" stroke-linecap="square" stroke-linejoin="bevel" transform="matrix(1,0,0,1,368.5,271)"
font-family="Cantarell" font-size="11.05" font-weight="400" font-style="normal" 
>
<text fill="#000000" fill-opacity="1" stroke="none" xml:space="preserve" x="0.203125" y="11" font-family="Cantarell" font-size="11.05" font-weight="400" font-style="normal" 
 >Structure à Gradients</text>
</g>

<g fill="none" stroke="#000000" stroke-opacity="1" stroke-width="1" stroke-linecap="square" stroke-linejoin="bevel" transform="matrix(1,0,0,1,0,0)"
font-family="Cantarell" font-size="11" font-weight="400" font-style="normal" 
>
</g>

<g fill="none" stroke="#000000" stroke-opacity="1" stroke-width="1" stroke-linecap="square" stroke-linejoin="bevel" transform="matrix(1,0,0,1,0,0)"
font-family="Cantarell" font-size="11" font-weight="400" font-style="normal" 
>
</g>

<g fill="none" stroke="#000000" stroke-opacity="1" stroke-width="1" stroke-linecap="square" stroke-linejoin="bevel" transform="matrix(1,0,0,1,0,0)"
font-family="Cantarell" font-size="11" font-weight="400" font-style="normal" 
>
<polyline fill="none" vector-effect="non-scaling-stroke" points="68,268 68,14 " />
<polyline fill="none" vector-effect="non-scaling-stroke" points="68,268 73,268 " />
<polyline fill="none" vector-effect="non-scaling-stroke" points="68,222.643 73,222.643 " />
<polyline fill="none" vector-effect="non-scaling-stroke" points="68,177.286 73,177.286 " />
<polyline fill="none" vector-effect="non-scaling-stroke" points="68,131.929 73,131.929 " />
<polyline fill="none" vector-effect="non-scaling-stroke" points="68,86.5714 73,86.5714 " />
<polyline fill="none" vector-effect="non-scaling-stroke" points="68,41.2143 73,41.2143 " />
<polyline fill="none" vector-effect="non-scaling-stroke" points="68,258.929 70,258.929 " />
<polyline fill="none" vector-effect="non-scaling-stroke" points="68,249.857 70,249.857 " />
<polyline fill="none" vector-effect="non-scaling-stroke" points="68,240.786 70,240.786 " />
<polyline fill="none" vector-effect="non-scaling-stroke" points="68,231.714 70,231.714 " />
<polyline fill="none" vector-effect="non-scaling-stroke" points="68,213.571 70,213.571 " />
<polyline fill="none" vector-effect="non-scaling-stroke" points="68,204.5 70,204.5 " />
<polyline fill="none" vector-effect="non-scaling-stroke" points="68,195.429 70,195.429 " />
<polyline fill="none" vector-effect="non-scaling-stroke" points="68,186.357 70,186.357 " />
<polyline fill="none" vector-effect="non-scaling-stroke" points="68,168.214 70,168.214 " />
<polyline fill="none" vector-effect="non-scaling-stroke" points="68,159.143 70,159.143 " />
<polyline fill="none" vector-effect="non-scaling-stroke" points="68,150.071 70,150.071 " />
<polyline fill="none" vector-effect="non-scaling-stroke" points="68,141 70,141 " />
<polyline fill="none" vector-effect="non-scaling-stroke" points="68,122.857 70,122.857 " />
<polyline fill="none" vector-effect="non-scaling-stroke" points="68,113.786 70,113.786 " />
<polyline fill="none" vector-effect="non-scaling-stroke" points="68,104.714 70,104.714 " />
<polyline fill="none" vector-effect="non-scaling-stroke" points="68,95.6429 70,95.6429 " />
<polyline fill="none" vector-effect="non-scaling-stroke" points="68,77.5 70,77.5 " />
<polyline fill="none" vector-effect="non-scaling-stroke" points="68,68.4286 70,68.4286 " />
<polyline fill="none" vector-effect="non-scaling-stroke" points="68,59.3571 70,59.3571 " />
<polyline fill="none" vector-effect="non-scaling-stroke" points="68,50.2857 70,50.2857 " />
<polyline fill="none" vector-effect="non-scaling-stroke" points="68,32.1429 70,32.1429 " />
<polyline fill="none" vector-effect="non-scaling-stroke" points="68,23.0714 70,23.0714 " />
<polyline fill="none" vector-effect="non-scaling-stroke" points="68,14 70,14 " />
</g>

<g fill="#000000" fill-opacity="1" stroke="#000000" stroke-opacity="1" stroke-width="1" stroke-linecap="square" stroke-linejoin="bevel" transform="matrix(1,0,0,1,55,261)"
font-family="Cantarell" font-size="11.05" font-weight="400" font-style="normal" 
>
<text fill="#000000" fill-opacity="1" stroke="none" xml:space="preserve" x="0.625" y="11" font-family="Cantarell" font-size="11.05" font-weight="400" font-style="normal" 
 >0</text>
</g>

<g fill="#000000" fill-opacity="1" stroke="#000000" stroke-opacity="1" stroke-width="1" stroke-linecap="square" stroke-linejoin="bevel" transform="matrix(1,0,0,1,47,215.643)"
font-family="Cantarell" font-size="11.05" font-weight="400" font-style="normal" 
>
<text fill="#000000" fill-opacity="1" stroke="none" xml:space="preserve" x="0.6875" y="11" font-family="Cantarell" font-size="11.05" font-weight="400" font-style="normal" 
 >2,5</text>
</g>

<g fill="#000000" fill-opacity="1" stroke="#000000" stroke-opacity="1" stroke-width="1" stroke-linecap="square" stroke-linejoin="bevel" transform="matrix(1,0,0,1,55,170.286)"
font-family="Cantarell" font-size="11.05" font-weight="400" font-style="normal" 
>
<text fill="#000000" fill-opacity="1" stroke="none" xml:space="preserve" x="0.984375" y="11" font-family="Cantarell" font-size="11.05" font-weight="400" font-style="normal" 
 >5</text>
</g>

<g fill="#000000" fill-opacity="1" stroke="#000000" stroke-opacity="1" stroke-width="1" stroke-linecap="square" stroke-linejoin="bevel" transform="matrix(1,0,0,1,47,124.929)"
font-family="Cantarell" font-size="11.05" font-weight="400" font-style="normal" 
>
<text fill="#000000" fill-opacity="1" stroke="none" xml:space="preserve" x="0.71875" y="11" font-family="Cantarell" font-size="11.05" font-weight="400" font-style="normal" 
 >7,5</text>
</g>

<g fill="#000000" fill-opacity="1" stroke="#000000" stroke-opacity="1" stroke-width="1" stroke-linecap="square" stroke-linejoin="bevel" transform="matrix(1,0,0,1,51,79.5714)"
font-family="Cantarell" font-size="11.05" font-weight="400" font-style="normal" 
>
<text fill="#000000" fill-opacity="1" stroke="none" xml:space="preserve" x="0.296875" y="11" font-family="Cantarell" font-size="11.05" font-weight="400" font-style="normal" 
 >10</text>
</g>

<g fill="#000000" fill-opacity="1" stroke="#000000" stroke-opacity="1" stroke-width="1" stroke-linecap="square" stroke-linejoin="bevel" transform="matrix(1,0,0,1,43,34.2143)"
font-family="Cantarell" font-size="11.05" font-weight="400" font-style="normal" 
>
<text fill="#000000" fill-opacity="1" stroke="none" xml:space="preserve" x="0.359375" y="11" font-family="Cantarell" font-size="11.05" font-weight="400" font-style="normal" 
 >12,5</text>
</g>

<g fill="#000000" fill-opacity="1" stroke="#000000" stroke-opacity="1" stroke-width="1" stroke-linecap="square" stroke-linejoin="bevel" transform="matrix(0,-1,1,0,19,268)"
font-family="Cantarell" font-size="11" font-weight="400" font-style="normal" 
>
<text fill="#000000" fill-opacity="1" stroke="none" xml:space="preserve" x="53.4844" y="11" font-family="Cantarell" font-size="11" font-weight="400" font-style="normal" 
 >Énergie Moyenne Absorbée (J)</text>
</g>

<g fill="none" stroke="#000000" stroke-opacity="1" stroke-width="1" stroke-linecap="square" stroke-linejoin="bevel" transform="matrix(1,0,0,1,0,0)"
font-family="Cantarell" font-size="11" font-weight="400" font-style="normal" 
>
</g>

<g fill="none" stroke="#000000" stroke-opacity="1" stroke-width="1" stroke-linecap="square" stroke-linejoin="bevel" transform="matrix(1,0,0,1,0,0)"
font-family="Cantarell" font-size="11" font-weight="400" font-style="normal" 
>
</g>

<g fill="none" stroke="#000000" stroke-opacity="1" stroke-width="1" stroke-linecap="square" stroke-linejoin="bevel" transform="matrix(1,0,0,1,0,0)"
font-family="Cantarell" font-size="11" font-weight="400" font-style="normal" 
>
</g>
</g>
</svg>
