<?xml version="1.0" encoding="UTF-8" standalone="no"?>
<svg width="178.506mm" height="103.011mm"
 viewBox="0 0 506 292"
 xmlns="http://www.w3.org/2000/svg" xmlns:xlink="http://www.w3.org/1999/xlink"  version="1.2" baseProfile="tiny">
<defs>
</defs>
<g fill="none" stroke="black" stroke-width="1" fill-rule="evenodd" stroke-linecap="square" stroke-linejoin="bevel" >

<g fill="#ffffff" fill-opacity="1" stroke="none" transform="matrix(1,0,0,1,0,0)"
font-family="Cantarell" font-size="11" font-weight="400" font-style="normal" 
>
<rect x="0" y="0" width="506" height="292"/>
</g>

<g fill="none" stroke="#000000" stroke-opacity="1" stroke-width="1" stroke-linecap="square" stroke-linejoin="bevel" transform="matrix(1,0,0,1,0,0)"
font-family="Cantarell" font-size="11" font-weight="400" font-style="normal" 
>
</g>

<g fill="none" stroke="#000000" stroke-opacity="1" stroke-width="1" stroke-linecap="square" stroke-linejoin="bevel" transform="matrix(1,0,0,1,0,0)"
font-family="Cantarell" font-size="11" font-weight="400" font-style="normal" 
>
</g>

<g fill="none" stroke="#000000" stroke-opacity="1" stroke-width="1" stroke-linecap="square" stroke-linejoin="bevel" transform="matrix(1,0,0,1,0,0)"
font-family="Cantarell" font-size="11" font-weight="400" font-style="normal" 
>
</g>

<g fill="none" stroke="#000000" stroke-opacity="1" stroke-width="1" stroke-linecap="square" stroke-linejoin="bevel" transform="matrix(1,0,0,1,0,0)"
font-family="Cantarell" font-size="11" font-weight="400" font-style="normal" 
>
</g>

<g fill="#ffffff" fill-opacity="1" stroke="none" transform="matrix(1,0,0,1,0,0)"
font-family="Cantarell" font-size="11" font-weight="400" font-style="normal" 
>
<rect x="68" y="15" width="423" height="250"/>
</g>

<g fill="none" stroke="#000000" stroke-opacity="1" stroke-width="1" stroke-linecap="square" stroke-linejoin="bevel" transform="matrix(1,0,0,1,0,0)"
font-family="Cantarell" font-size="11" font-weight="400" font-style="normal" 
>
</g>

<g fill="none" stroke="#000000" stroke-opacity="1" stroke-width="1" stroke-linecap="square" stroke-linejoin="bevel" transform="matrix(1,0,0,1,0,0)"
font-family="Cantarell" font-size="11" font-weight="400" font-style="normal" 
>
</g>

<g fill="none" stroke="none" transform="matrix(1,0,0,1,0,0)"
font-family="Cantarell" font-size="11" font-weight="400" font-style="normal" 
>
<polyline fill="none" vector-effect="none" points="138.5,264 138.5,15 " />
<polyline fill="none" vector-effect="none" points="420.5,264 420.5,15 " />
</g>

<g fill="none" stroke="#000000" stroke-opacity="1" stroke-width="1" stroke-linecap="square" stroke-linejoin="bevel" transform="matrix(1,0,0,1,0,0)"
font-family="Cantarell" font-size="11" font-weight="400" font-style="normal" 
>
</g>

<g fill="none" stroke="#000000" stroke-opacity="1" stroke-width="1" stroke-linecap="square" stroke-linejoin="bevel" transform="matrix(1,0,0,1,0,0)"
font-family="Cantarell" font-size="11" font-weight="400" font-style="normal" 
>
</g>

<g fill="none" stroke="#dcdcdc" stroke-opacity="1" stroke-dasharray="2,1" stroke-dashoffset="0" stroke-width="0.5" stroke-linecap="square" stroke-linejoin="bevel" transform="matrix(1,0,0,1,0,0)"
font-family="Cantarell" font-size="11" font-weight="400" font-style="normal" 
>
<polyline fill="none" vector-effect="none" points="68,255.071 490,255.071 " />
<polyline fill="none" vector-effect="none" points="68,246.143 490,246.143 " />
<polyline fill="none" vector-effect="none" points="68,237.214 490,237.214 " />
<polyline fill="none" vector-effect="none" points="68,228.286 490,228.286 " />
<polyline fill="none" vector-effect="none" points="68,210.429 490,210.429 " />
<polyline fill="none" vector-effect="none" points="68,201.5 490,201.5 " />
<polyline fill="none" vector-effect="none" points="68,192.571 490,192.571 " />
<polyline fill="none" vector-effect="none" points="68,183.643 490,183.643 " />
<polyline fill="none" vector-effect="none" points="68,165.786 490,165.786 " />
<polyline fill="none" vector-effect="none" points="68,156.857 490,156.857 " />
<polyline fill="none" vector-effect="none" points="68,147.929 490,147.929 " />
<polyline fill="none" vector-effect="none" points="68,139 490,139 " />
<polyline fill="none" vector-effect="none" points="68,121.143 490,121.143 " />
<polyline fill="none" vector-effect="none" points="68,112.214 490,112.214 " />
<polyline fill="none" vector-effect="none" points="68,103.286 490,103.286 " />
<polyline fill="none" vector-effect="none" points="68,94.3571 490,94.3571 " />
<polyline fill="none" vector-effect="none" points="68,76.5 490,76.5 " />
<polyline fill="none" vector-effect="none" points="68,67.5714 490,67.5714 " />
<polyline fill="none" vector-effect="none" points="68,58.6429 490,58.6429 " />
<polyline fill="none" vector-effect="none" points="68,49.7143 490,49.7143 " />
<polyline fill="none" vector-effect="none" points="68,31.8571 490,31.8571 " />
<polyline fill="none" vector-effect="none" points="68,22.9286 490,22.9286 " />
<polyline fill="none" vector-effect="none" points="68,14 490,14 " />
</g>

<g fill="none" stroke="#c8c8c8" stroke-opacity="1" stroke-width="1" stroke-linecap="square" stroke-linejoin="bevel" transform="matrix(1,0,0,1,0,0)"
font-family="Cantarell" font-size="11" font-weight="400" font-style="normal" 
>
<polyline fill="none" vector-effect="none" points="68,264 490,264 " />
<polyline fill="none" vector-effect="none" points="68,219.357 490,219.357 " />
<polyline fill="none" vector-effect="none" points="68,174.714 490,174.714 " />
<polyline fill="none" vector-effect="none" points="68,130.071 490,130.071 " />
<polyline fill="none" vector-effect="none" points="68,85.4286 490,85.4286 " />
<polyline fill="none" vector-effect="none" points="68,40.7857 490,40.7857 " />
</g>

<g fill="none" stroke="#000000" stroke-opacity="1" stroke-width="1" stroke-linecap="square" stroke-linejoin="bevel" transform="matrix(1,0,0,1,0,0)"
font-family="Cantarell" font-size="11" font-weight="400" font-style="normal" 
>
</g>

<g fill="none" stroke="#000000" stroke-opacity="1" stroke-width="1" stroke-linecap="square" stroke-linejoin="bevel" transform="matrix(1,0,0,1,0,0)"
font-family="Cantarell" font-size="11" font-weight="400" font-style="normal" 
>
</g>

<g fill="none" stroke="#000000" stroke-opacity="1" stroke-width="1.5" stroke-linecap="butt" stroke-linejoin="bevel" transform="matrix(1,0,0,1,0,0)"
font-family="Cantarell" font-size="11" font-weight="400" font-style="normal" 
>
<polyline fill="none" vector-effect="none" points="138.5,200.75 138.5,194.946 " />
<polyline fill="none" vector-effect="none" points="138.5,204.75 138.5,210.554 " />
<polyline fill="none" vector-effect="none" points="420.5,109.5 420.5,104.607 " />
<polyline fill="none" vector-effect="none" points="420.5,113.5 420.5,118.393 " />
<polyline fill="none" vector-effect="none" points="130.5,194.946 146.5,194.946 " />
<polyline fill="none" vector-effect="none" points="130.5,210.554 146.5,210.554 " />
<polyline fill="none" vector-effect="none" points="412.5,104.607 428.5,104.607 " />
<polyline fill="none" vector-effect="none" points="412.5,118.393 428.5,118.393 " />
</g>

<g fill="none" stroke="#000000" stroke-opacity="1" stroke-width="1" stroke-linecap="square" stroke-linejoin="bevel" transform="matrix(1,0,0,1,0,0)"
font-family="Cantarell" font-size="11" font-weight="400" font-style="normal" 
>
</g>

<g fill="none" stroke="#000000" stroke-opacity="1" stroke-width="1" stroke-linecap="square" stroke-linejoin="bevel" transform="matrix(1,0,0,1,0,0)"
font-family="Cantarell" font-size="11" font-weight="400" font-style="normal" 
>
</g>

<g fill="#f27c18" fill-opacity="0.392157" stroke="#f27c18" stroke-opacity="1" stroke-width="1" stroke-linecap="square" stroke-linejoin="bevel" transform="matrix(1,0,0,1,0,0)"
font-family="Cantarell" font-size="11" font-weight="400" font-style="normal" 
>
<path vector-effect="none" fill-rule="evenodd" d="M110.3,202.75 L166.7,202.75 L166.7,264 L110.3,264 L110.3,202.75"/>
</g>

<g fill="#f27c18" fill-opacity="0.392157" stroke="#f27c18" stroke-opacity="1" stroke-width="1" stroke-linecap="square" stroke-linejoin="bevel" transform="matrix(1,0,0,1,0,0)"
font-family="Cantarell" font-size="11" font-weight="400" font-style="normal" 
>
<path vector-effect="none" fill-rule="evenodd" d="M392.3,111.5 L448.7,111.5 L448.7,264 L392.3,264 L392.3,111.5"/>
</g>

<g fill="none" stroke="#000000" stroke-opacity="1" stroke-width="1" stroke-linecap="square" stroke-linejoin="bevel" transform="matrix(1,0,0,1,0,0)"
font-family="Cantarell" font-size="11" font-weight="400" font-style="normal" 
>
</g>

<g fill="none" stroke="#000000" stroke-opacity="1" stroke-width="1" stroke-linecap="square" stroke-linejoin="bevel" transform="matrix(1,0,0,1,0,0)"
font-family="Cantarell" font-size="11" font-weight="400" font-style="normal" 
>
</g>

<g fill="none" stroke="#000000" stroke-opacity="1" stroke-width="1" stroke-linecap="square" stroke-linejoin="bevel" transform="matrix(1,0,0,1,0,0)"
font-family="Cantarell" font-size="11" font-weight="400" font-style="normal" 
>
<polyline fill="none" vector-effect="non-scaling-stroke" points="68,264 491,264 " />
<polyline fill="none" vector-effect="non-scaling-stroke" points="138.5,264 138.5,259 " />
<polyline fill="none" vector-effect="non-scaling-stroke" points="420.5,264 420.5,259 " />
</g>

<g fill="#000000" fill-opacity="1" stroke="#000000" stroke-opacity="1" stroke-width="1" stroke-linecap="square" stroke-linejoin="bevel" transform="matrix(1,0,0,1,103.5,267)"
font-family="Cantarell" font-size="11.05" font-weight="400" font-style="normal" 
>
<text fill="#000000" fill-opacity="1" stroke="none" xml:space="preserve" x="0.984375" y="11" font-family="Cantarell" font-size="11.05" font-weight="400" font-style="normal" 
 >Sans Gradient</text>
</g>

<g fill="#000000" fill-opacity="1" stroke="#000000" stroke-opacity="1" stroke-width="1" stroke-linecap="square" stroke-linejoin="bevel" transform="matrix(1,0,0,1,385.5,267)"
font-family="Cantarell" font-size="11.05" font-weight="400" font-style="normal" 
>
<text fill="#000000" fill-opacity="1" stroke="none" xml:space="preserve" x="0.96875" y="11" font-family="Cantarell" font-size="11.05" font-weight="400" font-style="normal" 
 >Avec Gradient</text>
</g>

<g fill="none" stroke="#000000" stroke-opacity="1" stroke-width="1" stroke-linecap="square" stroke-linejoin="bevel" transform="matrix(1,0,0,1,0,0)"
font-family="Cantarell" font-size="11" font-weight="400" font-style="normal" 
>
</g>

<g fill="none" stroke="#000000" stroke-opacity="1" stroke-width="1" stroke-linecap="square" stroke-linejoin="bevel" transform="matrix(1,0,0,1,0,0)"
font-family="Cantarell" font-size="11" font-weight="400" font-style="normal" 
>
</g>

<g fill="none" stroke="#000000" stroke-opacity="1" stroke-width="1" stroke-linecap="square" stroke-linejoin="bevel" transform="matrix(1,0,0,1,0,0)"
font-family="Cantarell" font-size="11" font-weight="400" font-style="normal" 
>
<polyline fill="none" vector-effect="non-scaling-stroke" points="68,264 68,14 " />
<polyline fill="none" vector-effect="non-scaling-stroke" points="68,264 73,264 " />
<polyline fill="none" vector-effect="non-scaling-stroke" points="68,219.357 73,219.357 " />
<polyline fill="none" vector-effect="non-scaling-stroke" points="68,174.714 73,174.714 " />
<polyline fill="none" vector-effect="non-scaling-stroke" points="68,130.071 73,130.071 " />
<polyline fill="none" vector-effect="non-scaling-stroke" points="68,85.4286 73,85.4286 " />
<polyline fill="none" vector-effect="non-scaling-stroke" points="68,40.7857 73,40.7857 " />
<polyline fill="none" vector-effect="non-scaling-stroke" points="68,255.071 70,255.071 " />
<polyline fill="none" vector-effect="non-scaling-stroke" points="68,246.143 70,246.143 " />
<polyline fill="none" vector-effect="non-scaling-stroke" points="68,237.214 70,237.214 " />
<polyline fill="none" vector-effect="non-scaling-stroke" points="68,228.286 70,228.286 " />
<polyline fill="none" vector-effect="non-scaling-stroke" points="68,210.429 70,210.429 " />
<polyline fill="none" vector-effect="non-scaling-stroke" points="68,201.5 70,201.5 " />
<polyline fill="none" vector-effect="non-scaling-stroke" points="68,192.571 70,192.571 " />
<polyline fill="none" vector-effect="non-scaling-stroke" points="68,183.643 70,183.643 " />
<polyline fill="none" vector-effect="non-scaling-stroke" points="68,165.786 70,165.786 " />
<polyline fill="none" vector-effect="non-scaling-stroke" points="68,156.857 70,156.857 " />
<polyline fill="none" vector-effect="non-scaling-stroke" points="68,147.929 70,147.929 " />
<polyline fill="none" vector-effect="non-scaling-stroke" points="68,139 70,139 " />
<polyline fill="none" vector-effect="non-scaling-stroke" points="68,121.143 70,121.143 " />
<polyline fill="none" vector-effect="non-scaling-stroke" points="68,112.214 70,112.214 " />
<polyline fill="none" vector-effect="non-scaling-stroke" points="68,103.286 70,103.286 " />
<polyline fill="none" vector-effect="non-scaling-stroke" points="68,94.3571 70,94.3571 " />
<polyline fill="none" vector-effect="non-scaling-stroke" points="68,76.5 70,76.5 " />
<polyline fill="none" vector-effect="non-scaling-stroke" points="68,67.5714 70,67.5714 " />
<polyline fill="none" vector-effect="non-scaling-stroke" points="68,58.6429 70,58.6429 " />
<polyline fill="none" vector-effect="non-scaling-stroke" points="68,49.7143 70,49.7143 " />
<polyline fill="none" vector-effect="non-scaling-stroke" points="68,31.8571 70,31.8571 " />
<polyline fill="none" vector-effect="non-scaling-stroke" points="68,22.9286 70,22.9286 " />
<polyline fill="none" vector-effect="non-scaling-stroke" points="68,14 70,14 " />
</g>

<g fill="#000000" fill-opacity="1" stroke="#000000" stroke-opacity="1" stroke-width="1" stroke-linecap="square" stroke-linejoin="bevel" transform="matrix(1,0,0,1,55,257)"
font-family="Cantarell" font-size="11.05" font-weight="400" font-style="normal" 
>
<text fill="#000000" fill-opacity="1" stroke="none" xml:space="preserve" x="0.625" y="11" font-family="Cantarell" font-size="11.05" font-weight="400" font-style="normal" 
 >0</text>
</g>

<g fill="#000000" fill-opacity="1" stroke="#000000" stroke-opacity="1" stroke-width="1" stroke-linecap="square" stroke-linejoin="bevel" transform="matrix(1,0,0,1,47,212.357)"
font-family="Cantarell" font-size="11.05" font-weight="400" font-style="normal" 
>
<text fill="#000000" fill-opacity="1" stroke="none" xml:space="preserve" x="0.6875" y="11" font-family="Cantarell" font-size="11.05" font-weight="400" font-style="normal" 
 >2,5</text>
</g>

<g fill="#000000" fill-opacity="1" stroke="#000000" stroke-opacity="1" stroke-width="1" stroke-linecap="square" stroke-linejoin="bevel" transform="matrix(1,0,0,1,55,167.714)"
font-family="Cantarell" font-size="11.05" font-weight="400" font-style="normal" 
>
<text fill="#000000" fill-opacity="1" stroke="none" xml:space="preserve" x="0.984375" y="11" font-family="Cantarell" font-size="11.05" font-weight="400" font-style="normal" 
 >5</text>
</g>

<g fill="#000000" fill-opacity="1" stroke="#000000" stroke-opacity="1" stroke-width="1" stroke-linecap="square" stroke-linejoin="bevel" transform="matrix(1,0,0,1,47,123.071)"
font-family="Cantarell" font-size="11.05" font-weight="400" font-style="normal" 
>
<text fill="#000000" fill-opacity="1" stroke="none" xml:space="preserve" x="0.71875" y="11" font-family="Cantarell" font-size="11.05" font-weight="400" font-style="normal" 
 >7,5</text>
</g>

<g fill="#000000" fill-opacity="1" stroke="#000000" stroke-opacity="1" stroke-width="1" stroke-linecap="square" stroke-linejoin="bevel" transform="matrix(1,0,0,1,51,78.4286)"
font-family="Cantarell" font-size="11.05" font-weight="400" font-style="normal" 
>
<text fill="#000000" fill-opacity="1" stroke="none" xml:space="preserve" x="0.296875" y="11" font-family="Cantarell" font-size="11.05" font-weight="400" font-style="normal" 
 >10</text>
</g>

<g fill="#000000" fill-opacity="1" stroke="#000000" stroke-opacity="1" stroke-width="1" stroke-linecap="square" stroke-linejoin="bevel" transform="matrix(1,0,0,1,43,33.7857)"
font-family="Cantarell" font-size="11.05" font-weight="400" font-style="normal" 
>
<text fill="#000000" fill-opacity="1" stroke="none" xml:space="preserve" x="0.359375" y="11" font-family="Cantarell" font-size="11.05" font-weight="400" font-style="normal" 
 >12,5</text>
</g>

<g fill="#000000" fill-opacity="1" stroke="#000000" stroke-opacity="1" stroke-width="1" stroke-linecap="square" stroke-linejoin="bevel" transform="matrix(0,-1,1,0,19,264)"
font-family="Cantarell" font-size="11" font-weight="400" font-style="normal" 
>
<text fill="#000000" fill-opacity="1" stroke="none" xml:space="preserve" x="51.4844" y="11" font-family="Cantarell" font-size="11" font-weight="400" font-style="normal" 
 >Énergie Moyenne Absorbée (J)</text>
</g>

<g fill="none" stroke="#000000" stroke-opacity="1" stroke-width="1" stroke-linecap="square" stroke-linejoin="bevel" transform="matrix(1,0,0,1,0,0)"
font-family="Cantarell" font-size="11" font-weight="400" font-style="normal" 
>
</g>

<g fill="none" stroke="#000000" stroke-opacity="1" stroke-width="1" stroke-linecap="square" stroke-linejoin="bevel" transform="matrix(1,0,0,1,0,0)"
font-family="Cantarell" font-size="11" font-weight="400" font-style="normal" 
>
</g>

<g fill="none" stroke="#000000" stroke-opacity="1" stroke-width="1" stroke-linecap="square" stroke-linejoin="bevel" transform="matrix(1,0,0,1,0,0)"
font-family="Cantarell" font-size="11" font-weight="400" font-style="normal" 
>
</g>
</g>
</svg>
