<svg version="1.1" viewBox="0 0 114 49" xmlns="http://www.w3.org/2000/svg">
  <g transform="">
    <path fill="#0f0c0a" d="M 9.2 7.56 L 7.37 6.22 C 4.94 9.59 5.67 14.3 9.04 16.74 C 11.8 18.73 15.54 18.65 18.18 16.5 L 16.75 14.71 C 14.48 16.54 11.19 16.17 9.36 13.9 C 7.9 12.07 7.82 9.47 9.2 7.56"/>
    <path fill="#0f0c0a" d="M 31.62 23.69 L 31.58 23.81 H 31.62 Z M 25.37 16.74 L 24.8 14.55 C 21.51 15.4 19.19 18.41 19.19 21.82 C 19.19 22.47 19.27 23.08 19.44 23.73 L 21.63 23.16 C 21.51 22.71 21.47 22.31 21.47 21.86 C 21.47 19.42 23.09 17.35 25.37 16.74"/>
    <path fill="#008db0" d="M 17.97 27.71 C 17.97 23.57 14.6 20.19 10.46 20.19 C 9.69 20.19 8.96 20.32 8.22 20.52 L 8.87 22.71 C 9.36 22.55 9.89 22.47 10.42 22.47 C 13.3 22.47 15.66 24.82 15.66 27.71 V 28.16 L 17.93 28.36 C 17.93 28.16 17.97 27.95 17.97 27.71"/>
    <path fill="#008db0" d="M 104 29.25 C 104 28.11 104.57 27.67 105.39 27.67 C 106.2 27.67 106.77 28.16 106.77 29.25 V 29.33 H 104 Z M 108.07 29.66 C 108.07 27.38 106.97 26.45 105.39 26.45 C 103.8 26.45 102.7 27.38 102.7 29.66 V 29.94 C 102.7 32.18 103.88 33.11 105.67 33.11 C 106.48 33.11 107.29 32.91 108.02 32.46 L 107.62 31.36 C 107.01 31.73 106.36 31.89 105.67 31.89 C 104.65 31.89 104 31.36 104 30.35 V 30.31 H 108.07 Z M 101.49 26.61 H 100.19 V 31.69 C 99.78 31.85 99.37 31.89 98.97 31.89 C 97.99 31.89 97.34 31.41 97.34 29.98 V 26.61 H 96.08 V 29.94 C 96.08 32.18 97.26 33.15 98.89 33.15 C 99.78 33.15 100.67 32.99 101.44 32.58 Z M 90.84 29.66 C 90.84 28.07 91.49 27.63 92.55 27.63 C 92.91 27.63 93.28 27.71 93.65 27.83 V 31.69 C 93.32 31.85 92.96 31.93 92.63 31.89 C 91.57 31.89 90.84 31.49 90.84 29.86 Z M 94.91 27.02 C 94.17 26.65 93.36 26.45 92.51 26.49 C 90.72 26.49 89.54 27.51 89.54 29.7 V 29.94 C 89.54 32.18 90.84 33.15 92.51 33.15 C 92.87 33.15 93.28 33.11 93.65 32.95 V 36.12 H 94.95 Z M 86.86 24.74 C 86.86 25.19 87.23 25.52 87.63 25.52 C 88.08 25.52 88.41 25.15 88.41 24.74 C 88.41 24.3 88.04 23.97 87.63 23.97 S 86.86 24.3 86.86 24.74 M 87.03 32.95 H 88.28 V 26.61 H 87.03 Z M 80.2 32.95 H 81.46 V 27.83 C 81.83 27.67 82.23 27.63 82.64 27.63 C 83.61 27.63 84.26 28.11 84.26 29.58 V 32.95 H 85.52 V 29.66 C 85.52 27.42 84.34 26.45 82.72 26.45 C 81.83 26.41 80.97 26.61 80.16 26.98 Z M 73.62 32.95 H 74.88 V 27.83 C 75.25 27.71 75.65 27.63 76.06 27.63 C 77.03 27.63 77.68 28.11 77.68 29.58 V 32.95 H 78.94 V 29.66 C 78.94 27.42 77.76 26.45 76.14 26.45 C 75.69 26.45 75.29 26.49 74.84 26.57 V 24.05 H 73.58 Z M 67.45 29.82 C 67.45 32.14 68.67 33.03 70.37 33.03 C 71.14 33.03 71.92 32.83 72.57 32.38 L 72.12 31.28 C 71.59 31.61 71.02 31.81 70.41 31.81 C 69.44 31.81 68.75 31.32 68.75 29.78 V 29.58 C 68.75 28.03 69.44 27.55 70.41 27.55 C 71.02 27.55 71.63 27.75 72.12 28.11 L 72.61 27.02 C 71.96 26.61 71.18 26.37 70.41 26.37 C 68.71 26.37 67.49 27.26 67.49 29.58 Z M 62.37 29.21 C 62.37 28.07 62.94 27.63 63.75 27.63 C 64.56 27.63 65.13 28.11 65.13 29.21 V 29.29 H 62.37 Z M 66.43 29.62 C 66.43 27.34 65.33 26.41 63.75 26.41 C 62.17 26.41 61.07 27.34 61.07 29.62 V 29.9 C 61.07 32.14 62.25 33.07 64.04 33.07 C 64.85 33.07 65.66 32.87 66.39 32.42 L 65.98 31.32 C 65.38 31.65 64.73 31.85 64.04 31.85 C 63.02 31.85 62.37 31.32 62.37 30.31 V 30.27 H 66.43 Z M 56.11 30.71 C 56.11 32.42 57.09 33.07 58.39 33.07 C 59.12 33.11 59.81 32.87 60.38 32.42 C 60.26 32.06 60.14 31.69 59.93 31.32 C 59.61 31.61 59.2 31.77 58.8 31.81 C 58.59 31.85 58.39 31.85 58.19 31.85 C 57.7 31.77 57.37 31.49 57.37 30.76 V 27.83 H 59.85 V 26.65 H 57.37 V 24.74 H 56.11 Z M 54.61 26.57 H 53.35 V 31.65 C 53.03 31.81 52.7 31.89 52.34 31.89 C 51.24 31.89 50.55 31.41 50.55 29.94 V 26.57 H 49.29 V 29.9 C 49.29 32.14 50.55 33.11 52.17 33.11 C 52.58 33.11 52.99 33.07 53.39 32.91 V 33.31 C 53.39 34.49 52.78 34.94 51.93 34.94 C 51.2 34.94 50.51 34.74 49.9 34.37 L 49.45 35.51 C 50.18 35.91 51.04 36.16 51.89 36.12 C 53.47 36.12 54.65 35.18 54.65 33.27 Z M 45.47 30.84 C 45.47 32.46 46.29 33.03 47.38 33.03 C 47.87 33.03 48.32 32.95 48.72 32.71 L 48.32 31.61 C 48.07 31.77 47.83 31.85 47.54 31.85 C 47.06 31.85 46.73 31.61 46.73 30.84 V 24.05 H 45.43 Z M 38.89 29.86 C 38.89 32.18 40.07 33.07 41.57 33.07 C 43.08 33.07 44.25 32.18 44.25 29.86 V 29.66 C 44.25 27.34 43.08 26.45 41.57 26.45 C 40.07 26.45 38.89 27.34 38.89 29.66 Z M 42.95 29.86 C 42.95 31.41 42.43 31.89 41.57 31.89 C 40.72 31.89 40.15 31.41 40.15 29.86 V 29.66 C 40.15 28.11 40.68 27.63 41.57 27.63 S 42.95 28.11 42.95 29.66 Z M 35.11 25.92 C 36.46 25.92 36.86 26.41 36.86 27.26 C 36.86 28.11 36.46 28.56 35.11 28.56 H 33.41 V 25.92 Z M 32.11 24.7 V 32.95 H 33.45 V 29.78 H 35.16 C 37.35 29.78 38.24 28.72 38.24 27.26 S 37.39 24.7 35.16 24.7 Z"/>
    <path fill="#008db0" d="M 86.21 12.96 L 85.2 14.67 H 86.13 L 87.43 12.96 Z M 84.34 18.08 C 84.34 16.95 84.91 16.5 85.73 16.5 C 86.54 16.5 87.11 16.99 87.11 18.08 V 18.16 H 84.34 Z M 88.41 18.49 C 88.41 16.21 87.31 15.28 85.73 15.28 S 83.04 16.21 83.04 18.49 V 18.77 C 83.04 21.01 84.22 21.94 86.01 21.94 C 86.82 21.94 87.63 21.74 88.37 21.29 L 87.96 20.19 C 87.39 20.56 86.7 20.72 86.01 20.72 C 84.99 20.72 84.34 20.19 84.34 19.18 V 19.14 H 88.41 Z M 77.97 19.58 C 77.97 21.29 78.94 21.9 80.24 21.9 C 80.97 21.9 81.66 21.7 82.23 21.25 C 82.11 20.88 81.95 20.52 81.83 20.15 C 81.5 20.44 81.1 20.6 80.65 20.64 C 80.45 20.68 80.24 20.68 80.04 20.68 C 79.55 20.6 79.23 20.32 79.23 19.58 V 16.62 H 81.7 V 15.44 H 79.23 V 13.53 H 77.97 Z M 74.8 13.61 C 74.8 14.06 75.16 14.39 75.57 14.39 C 76.02 14.39 76.34 14.02 76.34 13.61 C 76.34 13.17 75.98 12.84 75.57 12.84 C 75.12 12.8 74.8 13.17 74.8 13.61 M 74.92 21.78 H 76.18 V 15.44 H 74.92 Z M 68.14 21.25 C 68.91 21.7 69.76 21.9 70.66 21.9 C 71.92 21.9 73.34 21.53 73.34 20.07 C 73.34 18.89 72.61 18.16 70.86 17.84 C 70.41 17.76 69.56 17.72 69.56 17.11 C 69.56 16.62 70.17 16.46 70.86 16.46 C 71.55 16.46 72.24 16.62 72.85 16.99 L 73.26 15.89 C 72.52 15.48 71.71 15.24 70.86 15.28 C 69.6 15.28 68.3 15.65 68.3 17.19 C 68.3 18.73 69.64 18.98 70.62 19.14 C 71.43 19.3 72.08 19.54 72.08 20.07 C 72.08 20.56 71.39 20.72 70.7 20.72 C 69.97 20.72 69.23 20.56 68.58 20.19 Z M 63.55 21.78 H 64.81 V 16.66 C 65.13 16.54 65.5 16.46 65.86 16.46 C 66.19 16.46 66.55 16.54 66.84 16.7 L 67.33 15.56 C 66.88 15.36 66.35 15.28 65.86 15.28 C 65.05 15.28 64.28 15.44 63.55 15.81 Z M 57.82 18.04 C 57.82 16.9 58.39 16.46 59.2 16.46 C 60.01 16.46 60.58 16.95 60.58 18.04 V 18.12 H 57.82 Z M 61.88 18.45 C 61.88 16.17 60.79 15.24 59.2 15.24 S 56.52 16.17 56.52 18.45 V 18.73 C 56.52 20.97 57.7 21.9 59.49 21.9 C 60.3 21.9 61.11 21.7 61.84 21.25 L 61.44 20.15 C 60.83 20.52 60.18 20.68 59.49 20.68 C 58.47 20.68 57.82 20.15 57.82 19.14 V 19.1 H 61.88 Z M 50.75 15.44 H 49.41 L 51.97 21.78 H 53.27 L 55.83 15.44 H 54.53 L 52.66 20.28 Z M 46.73 13.61 C 46.73 14.06 47.1 14.39 47.5 14.39 C 47.95 14.39 48.27 14.02 48.27 13.61 C 48.27 13.17 47.91 12.84 47.5 12.84 C 47.1 12.8 46.77 13.17 46.73 13.61 M 46.89 21.78 H 48.15 V 15.44 H 46.85 Z M 39.99 21.78 H 41.25 V 16.66 C 41.61 16.5 42.02 16.46 42.43 16.46 C 43.4 16.46 44.05 16.95 44.05 18.37 V 21.78 H 45.31 V 18.49 C 45.31 16.25 44.13 15.28 42.51 15.28 C 41.61 15.24 40.76 15.44 39.95 15.81 Z M 32.07 18 C 32.07 20.84 33.41 21.94 35.24 21.94 C 37.06 21.94 38.4 20.84 38.4 18 V 13.53 H 37.11 V 18 C 37.11 20.03 36.37 20.72 35.24 20.72 S 33.37 20.03 33.37 18 V 13.53 H 32.03 V 18 Z"/>
    <path fill="#0f0c0a" d="M 86.05 40.79 H 88.04 V 40.14 H 86.05 V 39.12 H 88.33 V 38.51 H 85.4 V 42.7 H 88.33 V 42.09 H 86.05 Z M 81.99 40.38 C 81.99 39.37 82.44 39 83.17 39 C 83.53 39 83.94 39.12 84.22 39.37 L 84.47 38.8 C 84.1 38.51 83.61 38.35 83.13 38.35 C 82.07 38.35 81.26 38.92 81.26 40.34 V 40.75 C 81.26 42.17 82.03 42.74 83.13 42.74 C 83.61 42.74 84.06 42.58 84.47 42.29 L 84.22 41.72 C 83.9 41.97 83.53 42.09 83.17 42.09 C 82.44 42.09 81.99 41.72 81.99 40.71 Z M 77.24 42.7 H 77.89 V 39.73 L 79.59 42.7 H 80.32 V 38.47 H 79.67 V 41.48 L 77.97 38.47 H 77.24 Z M 74.68 39.45 L 75.16 40.83 H 74.15 Z M 72.85 42.7 H 73.54 L 73.99 41.44 H 75.45 L 75.9 42.7 H 76.63 L 75.12 38.51 H 74.43 Z M 65.9 40.79 H 67.89 V 40.14 H 65.9 V 39.12 H 68.18 V 38.51 H 65.25 V 42.7 H 65.9 Z M 64.28 40.18 H 62.61 V 40.75 H 64.28 Z M 59.53 40.79 H 61.52 V 40.14 H 59.53 V 39.12 H 61.8 V 38.51 H 58.88 V 42.7 H 61.8 V 42.09 H 59.53 Z M 57.21 40.79 C 57.21 41.72 56.76 42.09 56.07 42.09 H 55.46 V 39.12 H 56.07 C 56.8 39.12 57.21 39.45 57.21 40.42 Z M 54.77 42.7 H 56.07 C 57.17 42.7 57.9 42.17 57.9 40.79 V 40.38 C 57.9 39.04 57.17 38.47 56.07 38.47 H 54.77 Z M 53.8 40.18 H 52.13 V 40.75 H 53.8 Z M 47.83 42.33 C 48.4 42.62 49.05 42.78 49.7 42.78 C 50.39 42.78 51.32 42.62 51.32 41.6 C 51.32 40.83 50.83 40.5 49.82 40.22 C 49.49 40.14 48.92 40.02 48.92 39.53 C 48.92 39.12 49.37 39.04 49.78 39.04 C 50.22 39.04 50.63 39.16 51 39.41 L 51.28 38.84 C 50.83 38.55 50.31 38.39 49.78 38.39 C 49.01 38.39 48.23 38.64 48.23 39.53 S 49.05 40.71 49.66 40.87 C 50.27 41.03 50.63 41.19 50.63 41.6 S 50.27 42.17 49.7 42.17 C 49.25 42.17 48.8 42.05 48.4 41.8 Z M 44.17 39.08 H 45.55 V 42.66 H 46.2 V 39.12 H 47.58 V 38.51 H 44.13 Z M 40.27 40.75 C 40.27 42.17 40.96 42.74 41.9 42.74 C 42.83 42.74 43.52 42.17 43.52 40.75 V 38.47 H 42.83 V 40.75 C 42.83 41.8 42.47 42.13 41.9 42.13 C 41.33 42.13 40.96 41.8 40.96 40.75 V 38.47 H 40.27 Z M 37.8 39.41 L 38.28 40.79 H 37.27 Z M 35.93 42.66 H 36.62 L 37.06 41.4 H 38.53 L 38.97 42.66 H 39.66 L 38.16 38.47 H 37.47 Z M 32.8 40.79 H 34.55 V 42.7 H 35.24 V 38.47 H 34.55 V 40.14 H 32.76 V 38.47 H 32.07 V 42.66 H 32.76 Z"/>
    <path fill="#0f0c0a" d="M 70.57 39.08 C 71.27 39.08 71.47 39.33 71.47 39.69 C 71.47 40.06 71.27 40.3 70.57 40.3 H 69.72 V 39.08 Z M 71.67 42.7 H 72.44 L 71.22 40.83 C 71.75 40.71 72.16 40.26 72.12 39.69 C 72.12 38.96 71.67 38.47 70.53 38.47 H 68.99 V 42.7 H 69.68 V 40.95 H 70.53 Z"/>
  </g>
<script xmlns=""/></svg>