<svg version="1.1" xmlns="http://www.w3.org/2000/svg" xmlns:xlink="http://www.w3.org/1999/xlink" width="880" height="502"><defs><clipPath id="cysoSDGoMhoI"><path fill="none" stroke="none" d=" M 0 0 L 880 0 L 880 502 L 0 502 L 0 0 Z"/></clipPath></defs><g transform="scale(1,1)" clip-path="url(#cysoSDGoMhoI)"><g><rect fill="rgb(255,255,255)" stroke="none" x="0" y="0" width="880" height="503" fill-opacity="1"/><path fill="none" stroke="rgb(0,0,0)" paint-order="fill stroke markers" d=" M 365.8395898704972 415.30859538944475 C 365.8395898704972 404.1830783926312 359.6826436084517 393.97116543887654 349.84366339225596 388.7777468391782 L 335.83958987049743 415.3085953894447 Z" stroke-opacity="0.6" stroke-linecap="round" stroke-linejoin="round" stroke-miterlimit="10" stroke-width="2"/><text fill="rgb(0,0,0)" stroke="none" font-family="geogebra-sans-serif, sans-serif" font-size="16px" font-style="normal" font-weight="normal" text-decoration="normal" x="368" y="397" text-anchor="start" dominant-baseline="alphabetic" fill-opacity="1">α</text><text fill="none" stroke="rgb(255,255,255)" font-family="geogebra-sans-serif, sans-serif" font-size="16px" font-style="normal" font-weight="normal" text-decoration="normal" x="368" y="397" text-anchor="start" dominant-baseline="alphabetic" stroke-opacity="1" stroke-linejoin="bevel" stroke-miterlimit="10" stroke-width="3">α</text><text fill="rgb(0,0,0)" stroke="none" font-family="geogebra-sans-serif, sans-serif" font-size="16px" font-style="normal" font-weight="normal" text-decoration="normal" x="368" y="397" text-anchor="start" dominant-baseline="alphabetic" fill-opacity="1">α</text><path fill="none" stroke="rgb(97,97,97)" paint-order="fill stroke markers" d=" M 507.36076533749775 90.36012076109495 L 335.8395898704975 415.3085953894447" stroke-opacity="0.8" stroke-linecap="round" stroke-linejoin="round" stroke-miterlimit="10" stroke-width="2.5"/><path fill="none" stroke="rgb(97,97,97)" paint-order="fill stroke markers" d=" M 317.5424791403427 81.99176096792581 L 468.061462429579 81.99176096792581" stroke-opacity="0.8" stroke-linecap="round" stroke-linejoin="round" stroke-miterlimit="10" stroke-width="2.5"/><path fill="none" stroke="rgb(97,97,97)" paint-order="fill stroke markers" d=" M 468.061462429579 81.99176096792581 L 397.9282455146375 216.90507923110815" stroke-opacity="0.8" stroke-linecap="round" stroke-linejoin="round" stroke-miterlimit="10" stroke-width="2.5"/><path fill="none" stroke="rgb(97,97,97)" paint-order="fill stroke markers" d=" M 397.9282455146375 216.90507923110815 L 317.5424791403427 81.99176096792581" stroke-opacity="0.8" stroke-linecap="round" stroke-linejoin="round" stroke-miterlimit="10" stroke-width="2.5"/><path fill="none" stroke="rgb(97,97,97)" paint-order="fill stroke markers" d=" M 511.4071143163206 70.16256804478422 L 512.4769001214847 444.7178354518231" stroke-opacity="0.8" stroke-linejoin="round" stroke-miterlimit="10" stroke-width="2.5" stroke-dasharray="10.5,8"/><path fill="rgb(97,97,97)" stroke="none" paint-order="stroke fill markers" d=" M 438.55186047441543 146.96835197728643 L 437.7851818318924 148.2576168294789 L 439.28932415945025 149.15207524575578 L 440.0560028019733 147.86281039356328 L 438.5518604744155 146.96835197728643 Z M 443.4940424078201 149.90728677362478 L 442.727363765297 151.19655162581728 L 447.4546682233362 154.0077066484018 L 448.2213468658593 152.7184417962093 L 443.4940424078201 149.90728677362478 Z M 451.659386471706 154.7629181762708 L 450.89270782918294 156.0521830284633 L 455.6200122872222 158.86333805104786 L 456.38669092974527 157.57407319885536 L 451.659386471706 154.7629181762708 Z M 459.824730535592 159.61854957891686 L 459.0580518930689 160.90781443110936 L 463.78535635110813 163.7189694536939 L 464.5520349936312 162.42970460150138 L 459.824730535592 159.61854957891686 Z" fill-opacity="0.8"/><path fill="rgb(97,97,97)" stroke="none" paint-order="stroke fill markers" d=" M 439.05725208895706 143.90107908872614 C 438.9958384672581 143.90107908872614 438.93381161137495 143.90864110936562 438.87248388579786 143.92422958431123 L 434.7605968963667 144.96940200365012 C 434.5678147977203 145.01840396624428 434.40239450577883 145.14198132652749 434.30072659657634 145.3129484758135 C 434.19905868737385 145.4839156250995 434.1694712666536 145.68826782473454 434.2184732292477 145.8810499233809 L 435.26364564858665 149.9929369128121 C 435.33837495294813 150.28693477254106 435.5828459666265 150.50696786289987 435.88306223852356 150.55043509819043 C 435.9190781910571 150.5556497185476 435.9550455389541 150.558200004501 435.99072529918556 150.558200004501 C 436.2524594304483 150.558200004501 436.4987179750597 150.42096473333086 436.6351638681078 150.1915141077677 L 439.7018784382 145.03445469899762 C 439.85692472060134 144.7737252208615 439.83964449930386 144.44527121900794 439.6580955144564 144.20225028049353 C 439.5144175070772 144.00992332131773 439.29024810283136 143.90107908872614 439.05725208895706 143.90107908872614 Z" fill-opacity="0.8"/><path fill="rgb(97,97,97)" stroke="none" paint-order="stroke fill markers" d=" M 466.7846118100266 160.3896555314685 C 466.52287767876373 160.38965553146852 466.27661913415227 160.5268908026386 466.1401732411042 160.75634142820184 L 463.07345867101196 165.91340083697196 C 462.9184123886107 166.17413031510796 462.93569260990813 166.5025843169616 463.1172415947556 166.745605255476 C 463.2609196021348 166.93793221465182 463.4850890063807 167.04677644724342 463.7180850202551 167.04677644724342 C 463.779498641954 167.04677644724342 463.84152549783715 167.03921442660393 463.9028532234142 167.02362595165835 L 468.01474021284525 165.9784535323194 C 468.2075223114917 165.92945156972525 468.3729426034332 165.8058742094421 468.47461051263565 165.63490706015608 C 468.57627842183814 165.46393991087007 468.6058658425584 165.25958771123499 468.5568638799642 165.0668056125886 L 467.51169146062534 160.95491862315743 C 467.4369621562638 160.66092076342852 467.1924911425854 160.4408876730697 466.8922748706884 160.39742043777903 C 466.85625891815494 160.39220581742185 466.820291570258 160.3896555314685 466.7846118100266 160.3896555314685 Z" fill-opacity="0.8"/><path fill="none" stroke="rgb(97,97,97)" paint-order="fill stroke markers" d=" M 335.98570252468346 415.03178359654294 L 512.3933261660068 415.4567767509131" stroke-opacity="0.8" stroke-linecap="round" stroke-linejoin="round" stroke-miterlimit="10" stroke-width="2.5"/><text fill="rgb(97,97,97)" stroke="none" font-family="geogebra-sans-serif, sans-serif" font-size="16px" font-style="normal" font-weight="normal" text-decoration="normal" x="320" y="458" text-anchor="start" dominant-baseline="alphabetic" fill-opacity="1">L</text><text fill="none" stroke="rgb(255,255,255)" font-family="geogebra-sans-serif, sans-serif" font-size="16px" font-style="normal" font-weight="normal" text-decoration="normal" x="320" y="458" text-anchor="start" dominant-baseline="alphabetic" stroke-opacity="1" stroke-linejoin="bevel" stroke-miterlimit="10" stroke-width="3">L</text><text fill="rgb(97,97,97)" stroke="none" font-family="geogebra-sans-serif, sans-serif" font-size="16px" font-style="normal" font-weight="normal" text-decoration="normal" x="320" y="458" text-anchor="start" dominant-baseline="alphabetic" fill-opacity="1">L</text><text fill="rgb(97,97,97)" stroke="none" font-family="geogebra-sans-serif, sans-serif" font-size="14px" font-style="normal" font-weight="normal" text-decoration="normal" x="329" y="465" text-anchor="start" dominant-baseline="alphabetic" fill-opacity="1">x</text><text fill="none" stroke="rgb(255,255,255)" font-family="geogebra-sans-serif, sans-serif" font-size="14px" font-style="normal" font-weight="normal" text-decoration="normal" x="329" y="465" text-anchor="start" dominant-baseline="alphabetic" stroke-opacity="1" stroke-linejoin="bevel" stroke-miterlimit="10" stroke-width="3">x</text><text fill="rgb(97,97,97)" stroke="none" font-family="geogebra-sans-serif, sans-serif" font-size="14px" font-style="normal" font-weight="normal" text-decoration="normal" x="329" y="465" text-anchor="start" dominant-baseline="alphabetic" fill-opacity="1">x</text><path fill="rgb(97,97,97)" stroke="none" paint-order="stroke fill markers" d=" M 505.40522340789795 437.40213340537 L 501.1552298426726 437.4095290489055 L 501.1595802212229 439.90952526374394 L 505.40957378648085 439.9021296202084 L 505.40957378644805 439.9021296202084 L 505.4052234078978 437.40213340537 Z M 493.15524195518964 437.42345026026635 L 482.6552578528682 437.4417218501775 L 482.6596082314185 439.94171806501595 L 493.1595923337399 439.9234464751048 L 493.15524195518964 437.42345026026635 Z M 474.65526996538523 437.45564306153835 L 464.15528586306385 437.4739146514495 L 464.1596362416141 439.97391086628795 L 474.6596203439355 439.9556392763768 L 474.65526996538523 437.45564306153835 Z M 456.1552979755809 437.48783586281036 L 445.6553138732595 437.50610745272155 L 445.6596642518098 440.00610366756 L 456.15964835413115 439.9878320776488 L 456.1552979755809 437.48783586281036 Z M 437.65532598577647 437.5200286640824 L 427.1553418834551 437.53830025399355 L 427.15969226200536 440.038296468832 L 437.65967636432674 440.0200248789209 L 437.65532598577647 437.5200286640824 Z M 419.1553539959721 437.5522214653544 L 408.65536989365074 437.57049305526556 L 408.659720272201 440.070489270104 L 419.1597043745224 440.0522176801929 L 419.1553539959721 437.5522214653544 Z M 400.65538200616777 437.5844142666264 L 390.1553979038464 437.60268585653756 L 390.15974828239666 440.102682071376 L 400.65973238471804 440.0844104814649 L 400.65538200616777 437.5844142666264 Z M 382.15541001636336 437.6166070678984 L 371.655425914042 437.63487865780957 L 371.65977629259226 440.134874872648 L 382.15976039491363 440.1166032827369 L 382.15541001636336 437.6166070678984 Z M 363.655438026559 437.64879986917043 L 353.15545392423763 437.66707145908157 L 353.1598043027879 440.16706767392003 L 363.6597884051093 440.1487960840089 L 363.655438026559 437.64879986917043 Z M 345.15546603675466 437.68099267044244 L 334.6554819344333 437.69926426035363 L 334.65983231298355 440.1992604751921 L 345.15981641530493 440.1809888852809 L 345.15546603675466 437.68099267044244 Z M 326.65549404695025 437.7131854717145 L 316.1555099446289 437.73145706162563 L 316.15986032317915 440.2314532764641 L 326.6598444255005 440.21318168655296 L 326.65549404695025 437.7131854717145 Z M 308.1555220571459 437.7453782729865 L 297.6555379548245 437.76364986289764 L 297.6598883333748 440.2636460777361 L 308.1598724356962 440.24537448782496 L 308.1555220571459 437.7453782729865 Z M 289.65555006734155 437.7775710742585 L 279.1555659650202 437.79584266416964 L 279.15991634357044 440.2958388790081 L 289.6599004458918 440.27756728909696 L 289.65555006734155 437.7775710742585 Z M 271.15557807753714 437.8097638755305 L 260.65559397521577 437.82803546544164 L 260.65994435376604 440.3280316802801 L 271.1599284560874 440.30976009036897 L 271.15557807753714 437.8097638755305 Z M 252.6556060877328 437.8419566768025 L 242.15562198541136 437.86022826671365 L 242.15997236396163 440.3602244815521 L 252.65995646628306 440.341952891641 L 252.6556060877328 437.8419566768025 Z M 234.15563409792838 437.8741494780745 L 223.655649995607 437.8924210679857 L 223.66000037415728 440.39241728282417 L 234.15998447647866 440.374145692913 L 234.15563409792838 437.8741494780745 Z M 215.65566210812403 437.9063422793466 L 205.15567800580266 437.9246138692577 L 205.16002838435293 440.4246100840962 L 215.6600124866743 440.40633849418504 L 215.65566210812403 437.9063422793466 Z M 197.15569011831968 437.9385350806186 L 186.6557060159983 437.9568066705297 L 186.66005639454858 440.4568028853682 L 197.16004049686995 440.43853129545704 L 197.15569011831968 437.9385350806186 Z M 178.65571812851533 437.9707278818906 L 168.1557340261939 437.9889994718017 L 168.16008440474417 440.4889956866402 L 178.6600685070656 440.47072409672904 L 178.65571812851533 437.9707278818906 Z M 160.15574613871092 438.0029206831626 L 155.683387409129 438.01070327634045 L 155.6833874091702 438.01070327634045 L 155.68773778772047 440.51069949117885 L 155.68773778771197 440.51069949117885 L 160.1600965172612 440.50291689800105 L 160.15574613871092 438.0029206831626 Z" fill-opacity="0.8"/><path fill="rgb(97,97,97)" stroke="none" paint-order="stroke fill markers" d=" M 506.64841979569286 432.3999278363067 C 506.4866796198402 432.3999278363067 506.3235748700145 432.43132852864187 506.1683327684441 432.4959486356127 C 505.70157716655774 432.6902374053343 505.3978180581353 433.1465620425777 505.3986978400724 433.6521390831125 L 505.41609935427346 443.6521239424662 C 505.41697913621056 444.15770098300095 505.7223245505172 444.61296568453935 506.18975350834637 444.8056288292114 C 506.3438262360426 444.8691339581277 506.5055077117947 444.8999857692996 506.6658228029229 444.8999857692996 C 506.99187487807285 444.8999857692996 507.3122750060894 444.7723695749485 507.5515176910061 444.5322928003307 L 512.5428093635824 439.5235996135533 C 513.0301145249216 439.0345955237119 513.0287372712501 438.2431404984396 512.5397331814088 437.7558353371004 L 507.5310399946313 432.7645436645241 C 507.29203071557896 432.526364766413 506.97297252856555 432.3999278363067 506.64841979569286 432.3999278363067 Z" fill-opacity="0.8"/><path fill="rgb(97,97,97)" stroke="none" paint-order="stroke fill markers" d=" M 154.4271383926955 433.0128471272494 C 154.10108631754557 433.0128471272494 153.78068618952904 433.1404633216004 153.5414435046123 433.3805400962182 L 148.55015183203597 438.38923328299563 C 148.06284667069676 438.8782373728371 148.06422392436818 439.66969239810936 148.5532280142096 440.15699755944854 L 153.561921200987 445.14828923202487 C 153.80093048003948 445.386468130136 154.11998866705287 445.51290506024225 154.4445413999255 445.51290506024225 C 154.6062815757782 445.51290506024225 154.76938632560393 445.481504367907 154.92462842717438 445.41688426093623 C 155.39138402906065 445.2225954912146 155.695143137483 444.76627085397126 155.69426335554587 444.2606938134365 L 155.6768618413448 434.26070895408276 C 155.6759820594077 433.755131913548 155.37063664510114 433.2998672120097 154.90320768727202 433.1072040673376 C 154.7491349595758 433.0436989384213 154.58745348382374 433.0128471272494 154.4271383926955 433.0128471272494 Z" fill-opacity="0.8"/><text fill="rgb(97,97,97)" stroke="none" font-family="geogebra-sans-serif, sans-serif" font-size="16px" font-style="normal" font-weight="normal" text-decoration="normal" x="123" y="250" text-anchor="start" dominant-baseline="alphabetic" fill-opacity="1">L</text><text fill="none" stroke="rgb(255,255,255)" font-family="geogebra-sans-serif, sans-serif" font-size="16px" font-style="normal" font-weight="normal" text-decoration="normal" x="123" y="250" text-anchor="start" dominant-baseline="alphabetic" stroke-opacity="1" stroke-linejoin="bevel" stroke-miterlimit="10" stroke-width="3">L</text><text fill="rgb(97,97,97)" stroke="none" font-family="geogebra-sans-serif, sans-serif" font-size="16px" font-style="normal" font-weight="normal" text-decoration="normal" x="123" y="250" text-anchor="start" dominant-baseline="alphabetic" fill-opacity="1">L</text><text fill="rgb(97,97,97)" stroke="none" font-family="geogebra-sans-serif, sans-serif" font-size="14px" font-style="normal" font-weight="normal" text-decoration="normal" x="132" y="257" text-anchor="start" dominant-baseline="alphabetic" fill-opacity="1">y</text><text fill="none" stroke="rgb(255,255,255)" font-family="geogebra-sans-serif, sans-serif" font-size="14px" font-style="normal" font-weight="normal" text-decoration="normal" x="132" y="257" text-anchor="start" dominant-baseline="alphabetic" stroke-opacity="1" stroke-linejoin="bevel" stroke-miterlimit="10" stroke-width="3">y</text><text fill="rgb(97,97,97)" stroke="none" font-family="geogebra-sans-serif, sans-serif" font-size="14px" font-style="normal" font-weight="normal" text-decoration="normal" x="132" y="257" text-anchor="start" dominant-baseline="alphabetic" fill-opacity="1">y</text><path fill="rgb(97,97,97)" stroke="none" paint-order="stroke fill markers" d=" M 148.28780130750425 77.27123876358557 L 148.28483609600906 87.7712383448961 L 150.7848359963211 87.77194434763307 L 150.7878012078163 77.27194476632253 L 148.28780130750425 77.27123876358557 Z M 148.2825768872508 95.77123802589459 L 148.27961167575558 106.27123760720507 L 150.77961157606762 106.27194360994203 L 150.78257678756285 95.77194402863155 L 148.2825768872508 95.77123802589459 Z M 148.27735246699734 114.27123728820355 L 148.27438725550212 124.77123686951408 L 150.77438715581417 124.77194287225105 L 150.7773523673094 114.27194329094051 L 148.27735246699734 114.27123728820355 Z M 148.27212804674386 132.77123655051258 L 148.26916283524866 143.27123613182306 L 150.7691627355607 143.27194213456 L 150.7721279470559 132.77194255324952 L 148.27212804674386 132.77123655051258 Z M 148.2669036264904 151.27123581282154 L 148.26393841499518 161.77123539413202 L 150.76393831530723 161.77194139686895 L 150.76690352680245 151.27194181555848 L 148.2669036264904 151.27123581282154 Z M 148.26167920623695 169.7712350751305 L 148.25871399474173 180.27123465644104 L 150.75871389505377 180.27194065917797 L 150.761679106549 169.77194107786744 L 148.26167920623695 169.7712350751305 Z M 148.25645478598346 188.27123433743952 L 148.25348957448827 198.77123391875003 L 150.75348947480032 198.77193992148696 L 150.7564546862955 188.27194034017646 L 148.25645478598346 188.27123433743952 Z M 148.25123036573 206.7712335997485 L 148.24826515423482 217.271233181059 L 150.74826505454686 217.27193918379592 L 150.75123026604206 206.77193960248545 L 148.25123036573 206.7712335997485 Z M 148.24600594547655 225.27123286205747 L 148.24304073398133 235.77123244336798 L 150.74304063429338 235.7719384461049 L 150.7460058457886 225.2719388647944 L 148.24600594547655 225.27123286205747 Z M 148.24078152522307 243.77123212436646 L 148.23781631372788 254.27123170567697 L 150.73781621403992 254.2719377084139 L 150.74078142553512 243.7719381271034 L 148.24078152522307 243.77123212436646 Z M 148.23555710496962 262.2712313866755 L 148.23259189347442 272.77123096798596 L 150.73259179378647 272.7719369707229 L 150.73555700528166 262.2719373894124 L 148.23555710496962 262.2712313866755 Z M 148.23033268471616 280.77123064898444 L 148.22736747322094 291.2712302302949 L 150.72736737353299 291.27193623303185 L 150.7303325850282 280.7719366517214 L 148.23033268471616 280.77123064898444 Z M 148.2251082644627 299.2712299112934 L 148.22214305296748 309.77122949260394 L 150.72214295327953 309.77193549534087 L 150.72510816477475 299.27193591403034 L 148.2251082644627 299.2712299112934 Z M 148.21988384420922 317.7712291736024 L 148.21691863271403 328.2712287549129 L 150.71691853302607 328.27193475764983 L 150.71988374452127 317.77193517633935 L 148.21988384420922 317.7712291736024 Z M 148.21465942395577 336.2712284359114 L 148.21169421246054 346.7712280172219 L 150.7116941127726 346.77193401995885 L 150.7146593242678 336.2719344386483 L 148.21465942395577 336.2712284359114 Z M 148.2094350037023 354.7712276982204 L 148.2064697922071 365.2712272795309 L 150.70646969251914 365.2719332822678 L 150.70943490401436 354.77193370095733 L 148.2094350037023 354.7712276982204 Z M 148.20421058344883 373.27122696052936 L 148.20124537195363 383.7712265418399 L 150.70124527226568 383.7719325445768 L 150.70421048376087 373.2719329632663 L 148.20421058344883 373.27122696052936 Z M 148.19898616319537 391.7712262228384 L 148.19602095170018 402.27122580414886 L 150.69602085201223 402.2719318068858 L 150.69898606350742 391.7719322255753 L 148.19898616319537 391.7712262228384 Z M 148.19376174294192 410.27122548514734 L 148.1907965314467 420.7712250664579 L 150.69079643175874 420.7719310691948 L 150.69376164325396 410.2719314878843 L 148.19376174294192 410.27122548514734 Z M 148.18853732268846 428.7712247474563 L 148.18733711803563 433.02122457798686 L 148.18733711836273 433.02122457798686 L 150.68733701842314 433.02193058072373 L 150.68733701834768 433.02193058072373 L 150.6885372230005 428.77193075019323 L 148.18853732268846 428.7712247474563 Z" fill-opacity="0.8"/><path fill="rgb(97,97,97)" stroke="none" paint-order="stroke fill markers" d=" M 144.43698174692872 433.0201655236814 C 143.9315457750224 433.0201655236814 143.47583275178914 433.3245562671765 143.2822699843852 433.79148512191614 C 143.08866183439676 434.25852345245255 143.1954546921902 434.79620091713673 143.5528512152996 435.15379935561407 L 148.5514390104497 440.15521116171203 C 148.79553807066995 440.39944812856646 149.11555297305355 440.5215773304484 149.4355742787496 440.5215773304484 C 149.75535877192883 440.5215773304484 150.0751496589472 440.399628810429 150.319205892926 440.1557103810349 L 155.32061769902396 435.15712258588474 C 155.67821613750135 434.79972606277533 155.78531265965836 434.26210900068867 155.59196832481183 433.7949613943426 C 155.39862398996524 433.32781378799643 154.94291465466796 433.0231323605551 154.4373368688157 433.02298958482913 L 144.4373372675676 433.02016557388134 C 144.4372187579565 433.0201655404141 144.43710025107595 433.0201655236814 144.43698174692872 433.0201655236814 Z" fill-opacity="0.8"/><path fill="rgb(97,97,97)" stroke="none" paint-order="stroke fill markers" d=" M 149.5405203526934 66.38525403354646 C 149.22073585951418 66.38525403354646 148.9009449724958 66.50720255356583 148.656888738517 66.75112098295997 L 143.65547693241902 71.74970877811009 C 143.29787849394165 72.10710530121952 143.19078197178462 72.64472236330619 143.38412630663117 73.1118699696523 C 143.57747064147773 73.57901757599839 144.03317997677507 73.8836990034398 144.53875776262728 73.88384177916569 L 154.5387573638754 73.88666579011351 C 154.53887587348652 73.88666582358076 154.53899438036706 73.88666584031347 154.53911288451428 73.88666584031347 C 155.04454885642062 73.88666584031347 155.5002618796539 73.58227509681832 155.69382464705782 73.11534624207869 C 155.88743279704622 72.64830791154228 155.78063993925286 72.11063044685812 155.42324341614346 71.75303200838076 L 150.42465562099332 66.7516202022828 C 150.18055656077308 66.50738323542839 149.86054165838945 66.38525403354646 149.5405203526934 66.38525403354646 Z" fill-opacity="0.8"/><path fill="none" stroke="rgb(97,97,97)" paint-order="fill stroke markers" d=" M 149.54052257009374 67.63525403385955 L 511.4071143163206 68.12329175039002" stroke-opacity="0.8" stroke-linejoin="round" stroke-miterlimit="10" stroke-width="2.5" stroke-dasharray="10.5,8"/><path fill="rgb(97,97,97)" stroke="none" paint-order="stroke fill markers" d=" M 329.8778712514895 74.12239717554316 L 329.8679536051199 75.73418794700797 L 329.86795360512224 75.73418794700797 L 332.3679062793608 75.74957061763918 L 332.36790627936085 75.74957061763918 L 332.37782392573047 74.13777984617437 L 332.37782392572933 74.13777984617437 L 329.87787125148844 74.12239717554316 Z M 332.36790627936085 75.74957061763918 L 332.36790627936085 75.7495706176392 L 332.3679062793631 75.7495706176392 L 332.3679062793608 75.74957061763918 Z" fill-opacity="0.8"/><path fill="rgb(97,97,97)" stroke="none" paint-order="stroke fill markers" d=" M 326.1102806836507 75.71109011395811 C 325.60778749788875 75.71109011395811 325.1537927082359 76.01212539939824 324.958449051052 76.47563917584142 C 324.7621024084541 76.9415328481237 324.8657368977589 77.47982799312445 325.22102791878433 77.83951842712412 L 330.1901679260037 82.87018911686835 C 330.42314155624246 83.10604755744816 330.7402675938331 83.23969743609172 331.0717819303467 83.24173730504629 C 331.074349954424 83.24175310657283 331.076917212369 83.24176100070288 331.07948367158764 83.24176100070288 C 331.4082295363376 83.24176100070288 331.72387001463096 83.11223524395048 331.95790141460486 82.88106630758443 L 336.9885721043491 77.91192630036511 C 337.34826253834876 77.55663527933967 337.45851338853214 77.01965621034475 337.2679148559936 76.55138159291783 C 337.0773163234551 76.08310697549098 336.623403525993 75.77575547833334 336.11783529072216 75.77264462358602 L 326.11802459375855 75.71111394106111 C 326.11544203080246 75.71109805007416 326.1128607179512 75.71109011395811 326.1102806836507 75.71109011395811 Z" fill-opacity="0.8"/><path fill="rgb(97,97,97)" stroke="none" paint-order="stroke fill markers" d=" M 331.16629385926274 66.63020679247943 C 330.83754799451276 66.63020679247943 330.52190751621947 66.75973254923188 330.2878761162455 66.99090148559787 L 325.2572054265013 71.96004149281725 C 324.8975149925016 72.31533251384269 324.78726414231824 72.85231158283761 324.97786267485674 73.32058620026447 C 325.1684612073953 73.78886081769139 325.62237400485736 74.09621231484897 326.1279422401282 74.09932316959635 L 336.1277529370918 74.16085385212119 C 336.1303355000479 74.16086974310815 336.1329168128992 74.1608776792242 336.13549684719976 74.1608776792242 C 336.63799003296174 74.1608776792242 337.09198482261445 73.85984239378408 337.28732847979836 73.39632861734094 C 337.4836751223963 72.93043494505861 337.3800406330915 72.39213980005792 337.0247496120661 72.03244936605819 L 332.0556096048467 67.00177867631402 C 331.8226359746079 66.76592023573414 331.5055099370173 66.63227035709065 331.1739956005037 66.63023048813602 C 331.17142757642637 66.63021468660948 331.1688603184814 66.63020679247943 331.16629385926274 66.63020679247943 Z" fill-opacity="0.8"/><path fill="rgb(97,97,97)" stroke="none" paint-order="stroke fill markers" d=" M 402.67021395182263 421.3985585519758 L 402.6702139518243 421.39855855197584 L 402.6702139518228 421.39855855197584 L 402.6702139518228 421.3985585519758 Z M 402.6702139518228 421.39855855197584 L 402.52194459152724 425.6459714347549 L 405.0204227578679 425.73318870551697 L 405.16869211816345 421.4857758227378 L 405.168692118162 421.4857758227378 L 402.6702139518243 421.39855855197584 Z" fill-opacity="0.8"/><path fill="rgb(97,97,97)" stroke="none" paint-order="stroke fill markers" d=" M 404.13722456917856 413.9459670117265 C 403.8319163146817 413.9459670117265 403.52588667870583 414.0571418886769 403.28498674666156 414.2817903826761 L 398.1135958724562 419.10431217383314 C 397.74384401576697 419.44912006586446 397.61820757081546 419.9827090970531 397.79527061527034 420.45626753718534 C 397.9723336597252 420.9298259773177 398.4172266584287 421.2500945992734 398.9224967023119 421.26773264583267 L 408.9164093676744 421.616601728881 C 408.931059802624 421.61711314858 408.9456773423273 421.6173672189365 408.9602566881513 421.6173672189365 C 409.44849563609046 421.6173672189365 409.8939011849917 421.332434210163 410.0974761209412 420.88571487157225 C 410.30713002581535 420.4256560078351 410.2190072839159 419.88460503716317 409.87419939188464 419.51485318047395 L 405.05167760072754 414.3434623062685 C 404.8054981179901 414.0794737986833 404.47179448696204 413.9459670117265 404.13722456917856 413.9459670117265 Z" fill-opacity="0.8"/><path fill="rgb(97,97,97)" stroke="none" paint-order="stroke fill markers" d=" M 398.48972258958486 432.4083969465958 C 398.0014836416455 432.4083969465958 397.55607809274426 432.6933299553693 397.3525031567946 433.14004929396003 C 397.14284925192055 433.6001081576973 397.23097199382005 434.14115912836917 397.5757798858513 434.5109109850584 L 402.39830167700836 439.6823018592638 C 402.64448115974574 439.94629036684904 402.9781847907738 440.0797971538058 403.31275470855724 440.0797971538059 C 403.6180629630541 440.0797971538059 403.92409259903 439.9686222768555 404.1649925310743 439.74397378285624 L 409.3363834052797 434.9214519916992 C 409.70613526196894 434.57664409966793 409.83177170692045 434.04305506847925 409.65470866246557 433.56949662834694 C 409.4776456180107 433.0959381882147 409.03275261930725 432.77566956625896 408.527482575424 432.75803151969967 L 398.53356991006154 432.40916243665134 C 398.518919475112 432.4086510169523 398.50430193540876 432.4083969465958 398.48972258958486 432.4083969465958 Z" fill-opacity="0.8"/><path fill="rgb(97,97,97)" stroke="none" paint-order="stroke fill markers" d=" M 158.98739249458637 413.5618358118874 L 158.98428587382696 416.0618338816682 L 169.4842777669061 416.07488168885766 L 169.48738438766551 413.5748836190769 L 158.98739249458637 413.5618358118874 Z M 177.4873782109639 413.58482480550697 L 177.4842715902045 416.0848228752877 L 187.98426348328363 416.09787068247715 L 187.98737010404304 413.5978726126964 L 177.4873782109639 413.58482480550697 Z M 195.98736392734142 413.60781379912646 L 195.984257306582 416.1078118689072 L 206.48424919966115 416.1208596760967 L 206.48735582042056 413.62086160631594 L 195.98736392734142 413.60781379912646 Z M 214.48734964371894 413.630802792746 L 214.48424302295953 416.13080086252677 L 224.98423491603867 416.1438486697162 L 224.98734153679808 413.64385059993543 L 214.48734964371894 413.630802792746 Z M 232.98733536009647 413.6537917863655 L 232.98422873933706 416.15378985614626 L 243.4842206324162 416.16683766333574 L 243.4873272531756 413.666839593555 L 232.98733536009647 413.6537917863655 Z M 251.487321076474 413.67678077998505 L 251.48421445571458 416.1767788497658 L 261.98420634879375 416.18982665695523 L 261.9873129695531 413.6898285871745 L 251.487321076474 413.67678077998505 Z M 269.9873067928515 413.69976977360454 L 269.98420017209213 416.1997678433853 L 280.48419206517127 416.2128156505748 L 280.4872986859306 413.712817580794 L 269.9873067928515 413.69976977360454 Z M 288.487292509229 413.7227587672241 L 288.48418588846965 416.22275683700485 L 298.9841777815488 416.2358046441943 L 298.98728440230815 413.7358065744135 L 288.487292509229 413.7227587672241 Z M 306.98727822560653 413.7457477608436 L 306.9841716048472 416.24574583062434 L 317.4841634979263 416.2587936378138 L 317.4872701186857 413.75879556803307 L 306.98727822560653 413.7457477608436 Z M 325.48726394198405 413.7687367544631 L 325.4841573212247 416.26873482424384 L 329.7341540398073 416.27401607953476 L 329.73415403985194 416.27401607953476 L 329.73726066061135 413.77401800975406 L 329.73726066061244 413.77401800975406 L 325.48726394198405 413.7687367544631 Z M 329.73415403985194 416.27401607953476 L 329.73415403985194 416.2740160795348 L 329.7341540398531 416.2740160795348 L 329.7341540398073 416.27401607953476 Z" fill-opacity="0.8"/><path fill="rgb(97,97,97)" stroke="none" paint-order="stroke fill markers" d=" M 330.99164473678314 408.7755373360556 C 330.8311259531941 408.7755373360556 330.66924100656274 408.80646730620754 330.51500077718333 408.87013126532094 C 330.0476677278194 409.06302693376466 329.7425488471535 409.51844348942114 329.74192059175044 410.024020905083 L 329.72949410871286 420.02401318420596 C 329.7288658533098 420.5295905998678 330.03285194731495 420.98576405937223 330.4997041508108 421.17982059243207 C 330.65477943479533 421.2442807615133 330.817680746276 421.27560268945433 330.97921718757857 421.27560268945433 C 331.3039841830927 421.27560268945433 331.62323429148955 421.1489975781926 331.8622775813481 420.910547644936 L 336.8684869624284 415.9167647468933 C 337.3572485556546 415.4292163645389 337.35823205738836 414.63776075202435 336.87068367503394 414.1489991587981 L 331.8769007769912 409.14278977771784 C 331.63769081078897 408.90298456365474 331.3174824175011 408.7755373360556 330.99164473678314 408.7755373360556 Z" fill-opacity="0.8"/><path fill="rgb(97,97,97)" stroke="none" paint-order="stroke fill markers" d=" M 154.44896820579223 408.55615670917257 C 154.12420121027807 408.55615670917257 153.8049511018813 408.6827618204343 153.56590781202283 408.9212117536909 L 148.55969843094255 413.9149946517336 C 148.07093683771632 414.402543034088 148.06995333598258 415.1939986466026 148.557501718337 415.68276023982884 L 153.5512846163797 420.68896962090906 C 153.79049458258194 420.9287748349721 154.11070297586983 421.05622206257124 154.43654065658774 421.05622206257124 C 154.5970594401768 421.05622206257124 154.75894438680814 421.0252920924193 154.91318461618758 420.9616281333059 C 155.38051766555154 420.76873246486224 155.6856365462174 420.3133159092058 155.68626480162047 419.807738493544 L 155.69869128465805 409.80774621442094 C 155.6993195400611 409.3021687987591 155.3953334460559 408.84599533925467 154.92848124256003 408.65193880619483 C 154.7734059585755 408.5874786371136 154.61050464709484 408.55615670917257 154.44896820579223 408.55615670917257 Z" fill-opacity="0.8"/><path fill="rgb(97,97,97)" stroke="none" paint-order="stroke fill markers" d=" M 401.6865197828292 216.1977076702941 L 401.66948774712756 217.69761097043045 L 401.6694877471299 217.69761097043045 L 407.4191170643168 217.76290044062 L 407.43614910001844 216.26299714048366 L 401.6865197828315 216.1977076702941 Z M 415.4356333674122 216.3538346642257 L 415.4186013317106 217.85373796436204 L 424.9179888992407 217.9616075238057 L 424.9350209349423 216.46170422366936 L 415.4356333674122 216.3538346642257 Z M 432.9345052023361 216.55254174741137 L 432.91747316663447 218.0524450475477 L 436.5528182618707 218.09372592708453 L 436.5528182618725 218.09372592708453 L 436.5698502975742 216.59382262694817 L 436.5698502975698 216.59382262694817 L 432.9345052023361 216.55254174741137 Z" fill-opacity="0.8"/><path fill="rgb(97,97,97)" stroke="none" paint-order="stroke fill markers" d=" M 400.9622834563034 213.1893166694457 C 400.77003377526484 213.1893166694457 400.5808279147891 213.2632440487614 400.4378420229593 213.4030190709425 L 397.4039713512833 216.36876159981193 C 397.26173107167193 216.5078077531303 397.1805524529312 216.6976636690769 397.17829386456935 216.89656321325737 C 397.17603527620753 217.09546275743784 397.252881730023 217.28711311485094 397.3919278833413 217.42935339446242 L 400.3576704122107 220.4632240661383 C 400.5015699238698 220.6104291939744 400.6960295495627 220.68897368175368 400.8941494633824 220.68897368175368 C 400.98797738124716 220.68897368175368 401.08262626132927 220.67135702027414 401.17311434047207 220.6350738215964 C 401.4546701833406 220.5221777729404 401.64049528587833 220.2507930485203 401.64393969357513 219.94746592063493 L 401.7120678363816 213.9478527200896 C 401.7155122440784 213.64452559220422 401.53589763980915 213.36899114551025 401.2569780324603 213.24973066130897 C 401.16191203912615 213.20908233075997 401.06169084078186 213.1893166694457 400.9622834563034 213.1893166694457 Z" fill-opacity="0.8"/><path fill="rgb(97,97,97)" stroke="none" paint-order="stroke fill markers" d=" M 437.3451885813193 213.602459915625 C 437.25136066345453 213.602459915625 437.15671178337243 213.62007657710453 437.0662237042297 213.65635977578228 C 436.7846678613611 213.7692558244382 436.59884275882337 214.04064054885836 436.5953983511266 214.34396767674374 L 436.5272702083201 220.34358087728907 C 436.5238258006233 220.64690800517445 436.70344040489255 220.92244245186836 436.98236001224143 221.0417029360697 C 437.0774260055756 221.0823512666187 437.17764720391983 221.10211692793297 437.2770545883983 221.10211692793297 C 437.4693042694369 221.10211692793297 437.6585101299126 221.02818954861723 437.8014960217425 220.88841452643612 L 440.83536669341834 217.92267199756674 C 440.9776069730298 217.78362584424835 441.0587855917705 217.59376992830175 441.0610441801323 217.39487038412128 C 441.0633027684941 217.19597083994083 440.9864563146788 217.0043204825277 440.84741016136036 216.86208020291625 L 437.88166763249103 213.8282095312403 C 437.7377681208319 213.68100440340424 437.54330849513894 213.602459915625 437.3451885813193 213.602459915625 Z" fill-opacity="0.8"/><g transform="scale(19,19)"><g transform="translate(17.74713246378316,1.4310000000000003)"><path fill="rgb(0,0,0)" stroke="none" paint-order="stroke fill markers" d=" M 0.187 -0.231 L 0.134 -0.231 Q 0.11800000000000001 -0.166 0.11800000000000001 -0.127 Q 0.11800000000000001 -0.048 0.164 -0.021 Q 0.181 -0.011 0.20500000000000002 -0.011 Q 0.295 -0.011 0.367 -0.07100000000000001 Q 0.388 -0.088 0.405 -0.11 Q 0.41200000000000003 -0.12 0.418 -0.12 Q 0.427 -0.12 0.43 -0.107 Q 0.43 -0.096 0.396 -0.064 Q 0.313 0.011 0.203 0.011 Q 0.113 0.011 0.07100000000000001 -0.066 Q 0.046 -0.111 0.046 -0.17 Q 0.046 -0.301 0.148 -0.382 Q 0.223 -0.442 0.308 -0.442 Q 0.38 -0.442 0.406 -0.392 Q 0.41500000000000004 -0.376 0.41500000000000004 -0.357 Q 0.41500000000000004 -0.305 0.37 -0.271 L 0.369 -0.27 Q 0.356 -0.261 0.34 -0.254 Q 0.28500000000000003 -0.231 0.187 -0.231 M 0.14 -0.253 L 0.181 -0.253 Q 0.382 -0.253 0.382 -0.357 Q 0.382 -0.397 0.343 -0.41400000000000003 L 0.343 -0.41400000000000003 Q 0.329 -0.419 0.308 -0.42 Q 0.252 -0.42 0.20500000000000002 -0.374 Q 0.16 -0.33 0.14 -0.253 Z"/></g><g transform="translate(18.21313246378316,1.4310000000000003)"><path fill="rgb(0,0,0)" stroke="none" paint-order="stroke fill markers" d=" M 0.045 0.122 L 0.045 0.122 L 0.157 -0.323 Q 0.164 -0.353 0.164 -0.374 Q 0.164 -0.42 0.133 -0.42 Q 0.092 -0.42 0.066 -0.325 Q 0.063 -0.314 0.06 -0.301 Q 0.049 -0.279 0.043000000000000003 -0.278 Q 0.031 -0.278 0.031 -0.28800000000000003 Q 0.031 -0.304 0.049 -0.355 Q 0.056 -0.373 0.062 -0.385 Q 0.08600000000000001 -0.434 0.122 -0.441 Q 0.129 -0.442 0.136 -0.442 Q 0.19 -0.442 0.215 -0.398 L 0.215 -0.397 Q 0.223 -0.384 0.226 -0.367 Q 0.289 -0.442 0.357 -0.442 Q 0.428 -0.442 0.466 -0.378 Q 0.488 -0.333 0.49 -0.28200000000000003 Q 0.49 -0.17400000000000002 0.41400000000000003 -0.082 Q 0.34500000000000003 0.002 0.263 0.01 Q 0.256 0.011 0.249 0.011 Q 0.186 0.011 0.157 -0.053 Q 0.12 0.079 0.109 0.14100000000000001 Q 0.108 0.146 0.108 0.147 Q 0.108 0.158 0.121 0.161 L 0.122 0.161 L 0.122 0.161 Q 0.134 0.163 0.158 0.163 Q 0.18 0.163 0.182 0.17400000000000002 Q 0.182 0.194 0.164 0.194 L 0.066 0.191 L 0.065 0.191 L -0.017 0.194 L -0.019 0.194 Q -0.032 0.194 -0.032 0.182 Q -0.026000000000000002 0.164 -0.009000000000000001 0.163 Q 0.028 0.163 0.036000000000000004 0.15 L 0.037 0.149 Q 0.039 0.145 0.041 0.138 Q 0.042 0.133 0.045 0.122 M 0.221 -0.312 L 0.221 -0.312 L 0.17200000000000001 -0.116 Q 0.169 -0.10400000000000001 0.169 -0.1 Q 0.169 -0.077 0.187 -0.048 Q 0.198 -0.029 0.215 -0.019 Q 0.23 -0.011 0.248 -0.011 Q 0.299 -0.011 0.34400000000000003 -0.075 Q 0.357 -0.093 0.367 -0.114 Q 0.394 -0.171 0.41200000000000003 -0.268 Q 0.418 -0.303 0.418 -0.326 Q 0.418 -0.405 0.37 -0.418 Q 0.362 -0.42 0.354 -0.42 Q 0.316 -0.42 0.273 -0.382 Q 0.23 -0.34600000000000003 0.221 -0.312 Z"/></g><rect fill="rgb(0,0,0)" stroke="none" x="17.74713246378316" y="1.8375085000000002" width="0.9690000000000001" height="0.039999"/><g transform="translate(17.98163246378316,2.7934590000000004)"><path fill="rgb(0,0,0)" stroke="none" paint-order="stroke fill markers" d=" M 0.449 -0.17400000000000002 L 0.449 -0.17400000000000002 L 0.421 0 L 0.05 0 Q 0.05 -0.025 0.056 -0.032 L 0.061 -0.037 L 0.253 -0.251 Q 0.358 -0.369 0.358 -0.47200000000000003 Q 0.358 -0.561 0.304 -0.607 L 0.303 -0.608 L 0.302 -0.608 Q 0.27 -0.635 0.224 -0.635 Q 0.152 -0.635 0.109 -0.5730000000000001 Q 0.097 -0.555 0.089 -0.533 Q 0.092 -0.534 0.10200000000000001 -0.534 Q 0.14200000000000002 -0.534 0.153 -0.498 L 0.153 -0.497 Q 0.155 -0.49 0.155 -0.482 Q 0.155 -0.442 0.117 -0.431 Q 0.109 -0.429 0.10300000000000001 -0.429 Q 0.066 -0.429 0.054 -0.46 Q 0.05 -0.47100000000000003 0.05 -0.485 Q 0.05 -0.562 0.109 -0.617 Q 0.162 -0.666 0.23700000000000002 -0.666 Q 0.34700000000000003 -0.666 0.40800000000000003 -0.592 Q 0.443 -0.549 0.448 -0.49 Q 0.449 -0.481 0.449 -0.47200000000000003 Q 0.449 -0.399 0.394 -0.333 Q 0.365 -0.299 0.304 -0.243 L 0.243 -0.189 L 0.233 -0.18 L 0.127 -0.077 L 0.307 -0.077 Q 0.395 -0.077 0.402 -0.085 Q 0.41200000000000003 -0.099 0.424 -0.17400000000000002 L 0.449 -0.17400000000000002 Z"/></g></g><text fill="rgb(0,0,0)" stroke="none" font-family="geogebra-sans-serif, sans-serif" font-size="16px" font-style="normal" font-weight="normal" text-decoration="normal" x="445" y="149" text-anchor="start" dominant-baseline="alphabetic" fill-opacity="1">ep</text><g transform="scale(19,19)"><g transform="translate(21.799764042730526,24.115210526315792)"><path fill="rgb(0,0,0)" stroke="none" paint-order="stroke fill markers" d=" M 0.187 -0.231 L 0.134 -0.231 Q 0.11800000000000001 -0.166 0.11800000000000001 -0.127 Q 0.11800000000000001 -0.048 0.164 -0.021 Q 0.181 -0.011 0.20500000000000002 -0.011 Q 0.295 -0.011 0.367 -0.07100000000000001 Q 0.388 -0.088 0.405 -0.11 Q 0.41200000000000003 -0.12 0.418 -0.12 Q 0.427 -0.12 0.43 -0.107 Q 0.43 -0.096 0.396 -0.064 Q 0.313 0.011 0.203 0.011 Q 0.113 0.011 0.07100000000000001 -0.066 Q 0.046 -0.111 0.046 -0.17 Q 0.046 -0.301 0.148 -0.382 Q 0.223 -0.442 0.308 -0.442 Q 0.38 -0.442 0.406 -0.392 Q 0.41500000000000004 -0.376 0.41500000000000004 -0.357 Q 0.41500000000000004 -0.305 0.37 -0.271 L 0.369 -0.27 Q 0.356 -0.261 0.34 -0.254 Q 0.28500000000000003 -0.231 0.187 -0.231 M 0.14 -0.253 L 0.181 -0.253 Q 0.382 -0.253 0.382 -0.357 Q 0.382 -0.397 0.343 -0.41400000000000003 L 0.343 -0.41400000000000003 Q 0.329 -0.419 0.308 -0.42 Q 0.252 -0.42 0.20500000000000002 -0.374 Q 0.16 -0.33 0.14 -0.253 Z"/></g><g transform="translate(22.265764042730527,24.115210526315792)"><path fill="rgb(0,0,0)" stroke="none" paint-order="stroke fill markers" d=" M 0.045 0.122 L 0.045 0.122 L 0.157 -0.323 Q 0.164 -0.353 0.164 -0.374 Q 0.164 -0.42 0.133 -0.42 Q 0.092 -0.42 0.066 -0.325 Q 0.063 -0.314 0.06 -0.301 Q 0.049 -0.279 0.043000000000000003 -0.278 Q 0.031 -0.278 0.031 -0.28800000000000003 Q 0.031 -0.304 0.049 -0.355 Q 0.056 -0.373 0.062 -0.385 Q 0.08600000000000001 -0.434 0.122 -0.441 Q 0.129 -0.442 0.136 -0.442 Q 0.19 -0.442 0.215 -0.398 L 0.215 -0.397 Q 0.223 -0.384 0.226 -0.367 Q 0.289 -0.442 0.357 -0.442 Q 0.428 -0.442 0.466 -0.378 Q 0.488 -0.333 0.49 -0.28200000000000003 Q 0.49 -0.17400000000000002 0.41400000000000003 -0.082 Q 0.34500000000000003 0.002 0.263 0.01 Q 0.256 0.011 0.249 0.011 Q 0.186 0.011 0.157 -0.053 Q 0.12 0.079 0.109 0.14100000000000001 Q 0.108 0.146 0.108 0.147 Q 0.108 0.158 0.121 0.161 L 0.122 0.161 L 0.122 0.161 Q 0.134 0.163 0.158 0.163 Q 0.18 0.163 0.182 0.17400000000000002 Q 0.182 0.194 0.164 0.194 L 0.066 0.191 L 0.065 0.191 L -0.017 0.194 L -0.019 0.194 Q -0.032 0.194 -0.032 0.182 Q -0.026000000000000002 0.164 -0.009000000000000001 0.163 Q 0.028 0.163 0.036000000000000004 0.15 L 0.037 0.149 Q 0.039 0.145 0.041 0.138 Q 0.042 0.133 0.045 0.122 M 0.221 -0.312 L 0.221 -0.312 L 0.17200000000000001 -0.116 Q 0.169 -0.10400000000000001 0.169 -0.1 Q 0.169 -0.077 0.187 -0.048 Q 0.198 -0.029 0.215 -0.019 Q 0.23 -0.011 0.248 -0.011 Q 0.299 -0.011 0.34400000000000003 -0.075 Q 0.357 -0.093 0.367 -0.114 Q 0.394 -0.171 0.41200000000000003 -0.268 Q 0.418 -0.303 0.418 -0.326 Q 0.418 -0.405 0.37 -0.418 Q 0.362 -0.42 0.354 -0.42 Q 0.316 -0.42 0.273 -0.382 Q 0.23 -0.34600000000000003 0.221 -0.312 Z"/></g><rect fill="rgb(0,0,0)" stroke="none" x="21.799764042730526" y="24.52171902631579" width="0.9690000000000001" height="0.039999"/><g transform="translate(22.034264042730527,25.47766952631579)"><path fill="rgb(0,0,0)" stroke="none" paint-order="stroke fill markers" d=" M 0.449 -0.17400000000000002 L 0.449 -0.17400000000000002 L 0.421 0 L 0.05 0 Q 0.05 -0.025 0.056 -0.032 L 0.061 -0.037 L 0.253 -0.251 Q 0.358 -0.369 0.358 -0.47200000000000003 Q 0.358 -0.561 0.304 -0.607 L 0.303 -0.608 L 0.302 -0.608 Q 0.27 -0.635 0.224 -0.635 Q 0.152 -0.635 0.109 -0.5730000000000001 Q 0.097 -0.555 0.089 -0.533 Q 0.092 -0.534 0.10200000000000001 -0.534 Q 0.14200000000000002 -0.534 0.153 -0.498 L 0.153 -0.497 Q 0.155 -0.49 0.155 -0.482 Q 0.155 -0.442 0.117 -0.431 Q 0.109 -0.429 0.10300000000000001 -0.429 Q 0.066 -0.429 0.054 -0.46 Q 0.05 -0.47100000000000003 0.05 -0.485 Q 0.05 -0.562 0.109 -0.617 Q 0.162 -0.666 0.23700000000000002 -0.666 Q 0.34700000000000003 -0.666 0.40800000000000003 -0.592 Q 0.443 -0.549 0.448 -0.49 Q 0.449 -0.481 0.449 -0.47200000000000003 Q 0.449 -0.399 0.394 -0.333 Q 0.365 -0.299 0.304 -0.243 L 0.243 -0.189 L 0.233 -0.18 L 0.127 -0.077 L 0.307 -0.077 Q 0.395 -0.077 0.402 -0.085 Q 0.41200000000000003 -0.099 0.424 -0.17400000000000002 L 0.449 -0.17400000000000002 Z"/></g></g><g transform="scale(19,19)"><g transform="translate(11.01029035852,19.577736842105267)"><path fill="rgb(0,0,0)" stroke="none" paint-order="stroke fill markers" d=" M 0.374 -0.605 L 0.23900000000000002 -0.065 Q 0.234 -0.047 0.234 -0.042 Q 0.234 -0.034 0.243 -0.032 L 0.243 -0.032 L 0.243 -0.032 L 0.247 -0.032 Q 0.253 -0.031 0.269 -0.031 L 0.363 -0.031 Q 0.509 -0.031 0.5750000000000001 -0.147 Q 0.592 -0.177 0.614 -0.23700000000000002 Q 0.622 -0.256 0.627 -0.257 L 0.628 -0.258 L 0.631 -0.258 Q 0.642 -0.258 0.643 -0.247 Q 0.643 -0.244 0.639 -0.233 L 0.56 -0.017 Q 0.555 -0.002 0.547 -0.001 L 0.547 -0.001 L 0.546 -0.001 Q 0.542 0 0.529 0 L 0.066 0 Q 0.041 0 0.039 -0.011 Q 0.039 -0.029 0.054 -0.031 L 0.066 -0.031 Q 0.131 -0.031 0.14400000000000002 -0.045 Q 0.15 -0.052000000000000005 0.156 -0.073 Q 0.156 -0.074 0.157 -0.078 L 0.291 -0.615 Q 0.295 -0.631 0.295 -0.634 Q 0.295 -0.646 0.279 -0.649 L 0.278 -0.649 L 0.277 -0.649 Q 0.274 -0.649 0.268 -0.65 Q 0.251 -0.652 0.23 -0.652 Q 0.20400000000000001 -0.652 0.202 -0.663 Q 0.202 -0.683 0.221 -0.683 L 0.353 -0.68 L 0.354 -0.68 L 0.501 -0.683 L 0.502 -0.683 Q 0.518 -0.683 0.518 -0.671 Q 0.518 -0.655 0.505 -0.653 Q 0.499 -0.652 0.48 -0.652 Q 0.401 -0.652 0.386 -0.635 Q 0.38 -0.628 0.374 -0.605 Z"/></g><g transform="translate(11.69129035852,19.727736842105266) scale(0.7,0.7)"><path fill="rgb(0,0,0)" stroke="none" paint-order="stroke fill markers" d=" M 0.334 -0.302 L 0.3 -0.165 Q 0.28300000000000003 -0.097 0.28300000000000003 -0.077 Q 0.28300000000000003 -0.025 0.32 -0.014 Q 0.328 -0.011 0.338 -0.011 Q 0.388 -0.011 0.429 -0.061 Q 0.456 -0.093 0.47100000000000003 -0.14200000000000002 Q 0.47400000000000003 -0.153 0.484 -0.153 Q 0.496 -0.153 0.496 -0.14300000000000002 Q 0.496 -0.11800000000000001 0.465 -0.07100000000000001 Q 0.41100000000000003 0.011 0.336 0.011 Q 0.268 0.011 0.23700000000000002 -0.046 Q 0.231 -0.055 0.228 -0.065 Q 0.20400000000000001 -0.017 0.162 0.002 Q 0.14300000000000002 0.011 0.123 0.011 Q 0.063 0.011 0.039 -0.024 Q 0.029 -0.037 0.029 -0.055 Q 0.029 -0.092 0.061 -0.107 Q 0.07200000000000001 -0.113 0.084 -0.113 Q 0.114 -0.113 0.12 -0.088 Q 0.121 -0.083 0.121 -0.078 Q 0.121 -0.044 0.08700000000000001 -0.028 Q 0.081 -0.025 0.074 -0.024 Q 0.095 -0.011 0.124 -0.011 Q 0.177 -0.011 0.20800000000000002 -0.082 Q 0.214 -0.097 0.219 -0.115 Q 0.273 -0.319 0.273 -0.353 Q 0.267 -0.41500000000000004 0.219 -0.42 Q 0.167 -0.42 0.124 -0.367 L 0.124 -0.366 Q 0.124 -0.365 0.123 -0.365 Q 0.108 -0.34500000000000003 0.096 -0.319 Q 0.091 -0.307 0.08700000000000001 -0.295 L 0.085 -0.289 Q 0.083 -0.278 0.07200000000000001 -0.278 Q 0.06 -0.278 0.06 -0.28800000000000003 Q 0.06 -0.313 0.092 -0.36 Q 0.146 -0.442 0.221 -0.442 Q 0.298 -0.442 0.329 -0.366 Q 0.361 -0.428 0.41400000000000003 -0.44 Q 0.424 -0.442 0.434 -0.442 Q 0.493 -0.442 0.517 -0.40900000000000003 Q 0.527 -0.395 0.527 -0.376 Q 0.527 -0.335 0.49 -0.321 Q 0.481 -0.318 0.47300000000000003 -0.318 Q 0.442 -0.318 0.436 -0.34500000000000003 Q 0.435 -0.34900000000000003 0.435 -0.353 Q 0.435 -0.383 0.464 -0.4 Q 0.47300000000000003 -0.405 0.483 -0.40700000000000003 Q 0.462 -0.42 0.433 -0.42 Q 0.365 -0.42 0.337 -0.314 Q 0.335 -0.308 0.334 -0.302 Z"/></g><g transform="translate(12.313912580742223,19.577736842105267)"><path fill="rgb(0,0,0)" stroke="none" paint-order="stroke fill markers" d=" M 0.661 -0.23 L 0.116 -0.23 Q 0.084 -0.23 0.083 -0.25 Q 0.083 -0.27 0.116 -0.27 L 0.661 -0.27 Q 0.6930000000000001 -0.27 0.6940000000000001 -0.25 Q 0.6940000000000001 -0.23 0.661 -0.23 Z"/></g><g transform="translate(13.314134802964444,19.577736842105267)"><path fill="rgb(0,0,0)" stroke="none" paint-order="stroke fill markers" d=" M 0.187 -0.231 L 0.134 -0.231 Q 0.11800000000000001 -0.166 0.11800000000000001 -0.127 Q 0.11800000000000001 -0.048 0.164 -0.021 Q 0.181 -0.011 0.20500000000000002 -0.011 Q 0.295 -0.011 0.367 -0.07100000000000001 Q 0.388 -0.088 0.405 -0.11 Q 0.41200000000000003 -0.12 0.418 -0.12 Q 0.427 -0.12 0.43 -0.107 Q 0.43 -0.096 0.396 -0.064 Q 0.313 0.011 0.203 0.011 Q 0.113 0.011 0.07100000000000001 -0.066 Q 0.046 -0.111 0.046 -0.17 Q 0.046 -0.301 0.148 -0.382 Q 0.223 -0.442 0.308 -0.442 Q 0.38 -0.442 0.406 -0.392 Q 0.41500000000000004 -0.376 0.41500000000000004 -0.357 Q 0.41500000000000004 -0.305 0.37 -0.271 L 0.369 -0.27 Q 0.356 -0.261 0.34 -0.254 Q 0.28500000000000003 -0.231 0.187 -0.231 M 0.14 -0.253 L 0.181 -0.253 Q 0.382 -0.253 0.382 -0.357 Q 0.382 -0.397 0.343 -0.41400000000000003 L 0.343 -0.41400000000000003 Q 0.329 -0.419 0.308 -0.42 Q 0.252 -0.42 0.20500000000000002 -0.374 Q 0.16 -0.33 0.14 -0.253 Z"/></g><g transform="translate(13.780134802964444,19.577736842105267)"><path fill="rgb(0,0,0)" stroke="none" paint-order="stroke fill markers" d=" M 0.045 0.122 L 0.045 0.122 L 0.157 -0.323 Q 0.164 -0.353 0.164 -0.374 Q 0.164 -0.42 0.133 -0.42 Q 0.092 -0.42 0.066 -0.325 Q 0.063 -0.314 0.06 -0.301 Q 0.049 -0.279 0.043000000000000003 -0.278 Q 0.031 -0.278 0.031 -0.28800000000000003 Q 0.031 -0.304 0.049 -0.355 Q 0.056 -0.373 0.062 -0.385 Q 0.08600000000000001 -0.434 0.122 -0.441 Q 0.129 -0.442 0.136 -0.442 Q 0.19 -0.442 0.215 -0.398 L 0.215 -0.397 Q 0.223 -0.384 0.226 -0.367 Q 0.289 -0.442 0.357 -0.442 Q 0.428 -0.442 0.466 -0.378 Q 0.488 -0.333 0.49 -0.28200000000000003 Q 0.49 -0.17400000000000002 0.41400000000000003 -0.082 Q 0.34500000000000003 0.002 0.263 0.01 Q 0.256 0.011 0.249 0.011 Q 0.186 0.011 0.157 -0.053 Q 0.12 0.079 0.109 0.14100000000000001 Q 0.108 0.146 0.108 0.147 Q 0.108 0.158 0.121 0.161 L 0.122 0.161 L 0.122 0.161 Q 0.134 0.163 0.158 0.163 Q 0.18 0.163 0.182 0.17400000000000002 Q 0.182 0.194 0.164 0.194 L 0.066 0.191 L 0.065 0.191 L -0.017 0.194 L -0.019 0.194 Q -0.032 0.194 -0.032 0.182 Q -0.026000000000000002 0.164 -0.009000000000000001 0.163 Q 0.028 0.163 0.036000000000000004 0.15 L 0.037 0.149 Q 0.039 0.145 0.041 0.138 Q 0.042 0.133 0.045 0.122 M 0.221 -0.312 L 0.221 -0.312 L 0.17200000000000001 -0.116 Q 0.169 -0.10400000000000001 0.169 -0.1 Q 0.169 -0.077 0.187 -0.048 Q 0.198 -0.029 0.215 -0.019 Q 0.23 -0.011 0.248 -0.011 Q 0.299 -0.011 0.34400000000000003 -0.075 Q 0.357 -0.093 0.367 -0.114 Q 0.394 -0.171 0.41200000000000003 -0.268 Q 0.418 -0.303 0.418 -0.326 Q 0.418 -0.405 0.37 -0.418 Q 0.362 -0.42 0.354 -0.42 Q 0.316 -0.42 0.273 -0.382 Q 0.23 -0.34600000000000003 0.221 -0.312 Z"/></g><g transform="translate(14.283134802964444,19.727736842105266) scale(0.7,0.7)"><path fill="rgb(0,0,0)" stroke="none" paint-order="stroke fill markers" d=" M 0.334 -0.302 L 0.3 -0.165 Q 0.28300000000000003 -0.097 0.28300000000000003 -0.077 Q 0.28300000000000003 -0.025 0.32 -0.014 Q 0.328 -0.011 0.338 -0.011 Q 0.388 -0.011 0.429 -0.061 Q 0.456 -0.093 0.47100000000000003 -0.14200000000000002 Q 0.47400000000000003 -0.153 0.484 -0.153 Q 0.496 -0.153 0.496 -0.14300000000000002 Q 0.496 -0.11800000000000001 0.465 -0.07100000000000001 Q 0.41100000000000003 0.011 0.336 0.011 Q 0.268 0.011 0.23700000000000002 -0.046 Q 0.231 -0.055 0.228 -0.065 Q 0.20400000000000001 -0.017 0.162 0.002 Q 0.14300000000000002 0.011 0.123 0.011 Q 0.063 0.011 0.039 -0.024 Q 0.029 -0.037 0.029 -0.055 Q 0.029 -0.092 0.061 -0.107 Q 0.07200000000000001 -0.113 0.084 -0.113 Q 0.114 -0.113 0.12 -0.088 Q 0.121 -0.083 0.121 -0.078 Q 0.121 -0.044 0.08700000000000001 -0.028 Q 0.081 -0.025 0.074 -0.024 Q 0.095 -0.011 0.124 -0.011 Q 0.177 -0.011 0.20800000000000002 -0.082 Q 0.214 -0.097 0.219 -0.115 Q 0.273 -0.319 0.273 -0.353 Q 0.267 -0.41500000000000004 0.219 -0.42 Q 0.167 -0.42 0.124 -0.367 L 0.124 -0.366 Q 0.124 -0.365 0.123 -0.365 Q 0.108 -0.34500000000000003 0.096 -0.319 Q 0.091 -0.307 0.08700000000000001 -0.295 L 0.085 -0.289 Q 0.083 -0.278 0.07200000000000001 -0.278 Q 0.06 -0.278 0.06 -0.28800000000000003 Q 0.06 -0.313 0.092 -0.36 Q 0.146 -0.442 0.221 -0.442 Q 0.298 -0.442 0.329 -0.366 Q 0.361 -0.428 0.41400000000000003 -0.44 Q 0.424 -0.442 0.434 -0.442 Q 0.493 -0.442 0.517 -0.40900000000000003 Q 0.527 -0.395 0.527 -0.376 Q 0.527 -0.335 0.49 -0.321 Q 0.481 -0.318 0.47300000000000003 -0.318 Q 0.442 -0.318 0.436 -0.34500000000000003 Q 0.435 -0.34900000000000003 0.435 -0.353 Q 0.435 -0.383 0.464 -0.4 Q 0.47300000000000003 -0.405 0.483 -0.40700000000000003 Q 0.462 -0.42 0.433 -0.42 Q 0.365 -0.42 0.337 -0.314 Q 0.335 -0.308 0.334 -0.302 Z"/></g><rect fill="rgb(0,0,0)" stroke="none" x="11.01029035852" y="19.984245342105265" width="3.6732444444444448" height="0.039999"/><g transform="translate(12.596912580742224,20.940195842105265)"><path fill="rgb(0,0,0)" stroke="none" paint-order="stroke fill markers" d=" M 0.449 -0.17400000000000002 L 0.449 -0.17400000000000002 L 0.421 0 L 0.05 0 Q 0.05 -0.025 0.056 -0.032 L 0.061 -0.037 L 0.253 -0.251 Q 0.358 -0.369 0.358 -0.47200000000000003 Q 0.358 -0.561 0.304 -0.607 L 0.303 -0.608 L 0.302 -0.608 Q 0.27 -0.635 0.224 -0.635 Q 0.152 -0.635 0.109 -0.5730000000000001 Q 0.097 -0.555 0.089 -0.533 Q 0.092 -0.534 0.10200000000000001 -0.534 Q 0.14200000000000002 -0.534 0.153 -0.498 L 0.153 -0.497 Q 0.155 -0.49 0.155 -0.482 Q 0.155 -0.442 0.117 -0.431 Q 0.109 -0.429 0.10300000000000001 -0.429 Q 0.066 -0.429 0.054 -0.46 Q 0.05 -0.47100000000000003 0.05 -0.485 Q 0.05 -0.562 0.109 -0.617 Q 0.162 -0.666 0.23700000000000002 -0.666 Q 0.34700000000000003 -0.666 0.40800000000000003 -0.592 Q 0.443 -0.549 0.448 -0.49 Q 0.449 -0.481 0.449 -0.47200000000000003 Q 0.449 -0.399 0.394 -0.333 Q 0.365 -0.299 0.304 -0.243 L 0.243 -0.189 L 0.233 -0.18 L 0.127 -0.077 L 0.307 -0.077 Q 0.395 -0.077 0.402 -0.085 Q 0.41200000000000003 -0.099 0.424 -0.17400000000000002 L 0.449 -0.17400000000000002 Z"/></g></g><text fill="rgb(0,0,0)" stroke="none" font-family="geogebra-sans-serif, sans-serif" font-size="16px" font-style="normal" font-weight="normal" text-decoration="normal" x="391" y="233" text-anchor="start" dominant-baseline="alphabetic" fill-opacity="1">ep</text><text fill="rgb(0,0,0)" stroke="none" font-family="geogebra-sans-serif, sans-serif" font-size="14px" font-style="normal" font-weight="normal" text-decoration="normal" x="409" y="240" text-anchor="start" dominant-baseline="alphabetic" fill-opacity="1">x</text></g></g></svg>