<svg version="1.1" xmlns="http://www.w3.org/2000/svg" xmlns:xlink="http://www.w3.org/1999/xlink" width="880" height="502"><defs><clipPath id="oxJlxTkyVunV"><path fill="none" stroke="none" d=" M 0 0 L 880 0 L 880 502 L 0 502 L 0 0 Z"/></clipPath></defs><g transform="scale(1,1)" clip-path="url(#oxJlxTkyVunV)"><g><rect fill="rgb(255,255,255)" stroke="none" x="0" y="0" width="880" height="503" fill-opacity="1"/><path fill="none" stroke="rgb(0,0,0)" paint-order="fill stroke markers" d=" M 726.2074137812382 400.698491970404 C 716.9253814784831 406.0574758190265 711.2074137812383 415.9612863866923 711.2074137812383 426.67925408393717 L 741.2074137812381 426.67925408393717 Z" stroke-opacity="0.6" stroke-linecap="round" stroke-linejoin="round" stroke-miterlimit="10" stroke-width="2"/><text fill="rgb(0,0,0)" stroke="none" font-family="geogebra-sans-serif, sans-serif" font-size="16px" font-style="normal" font-weight="normal" text-decoration="normal" x="699" y="413" text-anchor="start" dominant-baseline="alphabetic" fill-opacity="1">α</text><text fill="none" stroke="rgb(255,255,255)" font-family="geogebra-sans-serif, sans-serif" font-size="16px" font-style="normal" font-weight="normal" text-decoration="normal" x="699" y="413" text-anchor="start" dominant-baseline="alphabetic" stroke-opacity="1" stroke-linejoin="bevel" stroke-miterlimit="10" stroke-width="3">α</text><text fill="rgb(0,0,0)" stroke="none" font-family="geogebra-sans-serif, sans-serif" font-size="16px" font-style="normal" font-weight="normal" text-decoration="normal" x="699" y="413" text-anchor="start" dominant-baseline="alphabetic" fill-opacity="1">α</text><path fill="none" stroke="rgb(0,0,0)" paint-order="fill stroke markers" d=" M 451.01337261472395 426.67925408393717 C 451.01337261472395 415.55373708712364 444.85642635267845 405.341824133369 435.0174461364827 400.14840553367065 L 421.0133726147242 426.67925408393717 Z" stroke-opacity="0.6" stroke-linecap="round" stroke-linejoin="round" stroke-miterlimit="10" stroke-width="2"/><text fill="rgb(0,0,0)" stroke="none" font-family="geogebra-sans-serif, sans-serif" font-size="16px" font-style="normal" font-weight="normal" text-decoration="normal" x="454" y="408" text-anchor="start" dominant-baseline="alphabetic" fill-opacity="1">α</text><text fill="none" stroke="rgb(255,255,255)" font-family="geogebra-sans-serif, sans-serif" font-size="16px" font-style="normal" font-weight="normal" text-decoration="normal" x="454" y="408" text-anchor="start" dominant-baseline="alphabetic" stroke-opacity="1" stroke-linejoin="bevel" stroke-miterlimit="10" stroke-width="3">α</text><text fill="rgb(0,0,0)" stroke="none" font-family="geogebra-sans-serif, sans-serif" font-size="16px" font-style="normal" font-weight="normal" text-decoration="normal" x="454" y="408" text-anchor="start" dominant-baseline="alphabetic" fill-opacity="1">α</text><path fill="none" stroke="rgb(97,97,97)" paint-order="fill stroke markers" d=" M 421.0133726147242 426.67925408393717 L 741.2074137812381 426.67925408393717" stroke-opacity="0.8" stroke-linecap="round" stroke-linejoin="round" stroke-miterlimit="10" stroke-width="2.5"/><path fill="none" stroke="rgb(97,97,97)" paint-order="fill stroke markers" d=" M 741.2074137812381 426.67925408393717 L 573.9385468662665 136.96107806272687" stroke-opacity="0.8" stroke-linecap="round" stroke-linejoin="round" stroke-miterlimit="10" stroke-width="2.5"/><path fill="none" stroke="rgb(97,97,97)" paint-order="fill stroke markers" d=" M 573.9385468662665 136.96107806272687 L 421.0133726147242 426.67925408393717" stroke-opacity="0.8" stroke-linecap="round" stroke-linejoin="round" stroke-miterlimit="10" stroke-width="2.5"/><path fill="none" stroke="rgb(97,97,97)" paint-order="fill stroke markers" d=" M 447.30057888576056 302.0294205651576 L 382.51135694616227 423.06932268299573" stroke-opacity="0.8" stroke-linecap="round" stroke-linejoin="round" stroke-miterlimit="10" stroke-width="2.5"/><path fill="none" stroke="rgb(97,97,97)" paint-order="fill stroke markers" d=" M 447.30057888576056 302.0294205651576 L 312.66941510343884 300.4073583509127" stroke-opacity="0.8" stroke-linecap="round" stroke-linejoin="round" stroke-miterlimit="10" stroke-width="2.5"/><path fill="none" stroke="rgb(97,97,97)" paint-order="fill stroke markers" d=" M 312.66941510343884 300.4073583509127 L 382.51135694616227 423.06932268299573" stroke-opacity="0.8" stroke-linecap="round" stroke-linejoin="round" stroke-miterlimit="10" stroke-width="2.5"/><path fill="none" stroke="rgb(97,97,97)" paint-order="fill stroke markers" d=" M 454.64447365233775 270.43812488907906 L 143.08774625550666 269.09128747274156" stroke-opacity="0.8" stroke-linecap="round" stroke-linejoin="round" stroke-miterlimit="10" stroke-width="2.5"/><path fill="none" stroke="rgb(97,97,97)" paint-order="fill stroke markers" d=" M 143.08774625550666 269.09128747274156 L 298.1923907430946 4.3055015260725895" stroke-opacity="0.8" stroke-linecap="round" stroke-linejoin="round" stroke-miterlimit="10" stroke-width="2.5"/><path fill="none" stroke="rgb(97,97,97)" paint-order="fill stroke markers" d=" M 298.1923907430946 4.3055015260725895 L 454.64447365233775 270.43812488907906" stroke-opacity="0.8" stroke-linecap="round" stroke-linejoin="round" stroke-miterlimit="10" stroke-width="2.5"/><path fill="none" stroke="rgb(97,97,97)" paint-order="fill stroke markers" d=" M 404.69999999999993 129.49999999999983 L 538.9 129.49999999999983" stroke-opacity="0.8" stroke-linecap="round" stroke-linejoin="round" stroke-miterlimit="10" stroke-width="2.5"/><path fill="none" stroke="rgb(97,97,97)" paint-order="fill stroke markers" d=" M 538.9 129.49999999999983 L 476.37049372570266 249.78627164008876" stroke-opacity="0.8" stroke-linecap="round" stroke-linejoin="round" stroke-miterlimit="10" stroke-width="2.5"/><path fill="none" stroke="rgb(97,97,97)" paint-order="fill stroke markers" d=" M 476.37049372570266 249.78627164008876 L 404.69999999999993 129.49999999999983" stroke-opacity="0.8" stroke-linecap="round" stroke-linejoin="round" stroke-miterlimit="10" stroke-width="2.5"/><path fill="rgb(97,97,97)" stroke="none" paint-order="stroke fill markers" d=" M 428.56530267237105 344.90155006521695 L 428.56530267237116 344.901550065217 L 428.5653026723712 344.901550065217 L 428.5653026723712 344.90155006521695 Z M 428.5653026723712 344.901550065217 L 427.9148867854685 346.2532006021772 L 427.91488678546847 346.2532006021772 L 429.49181241192196 347.0120191368969 L 430.14222829882465 345.66036859993676 L 428.56530267237116 344.901550065217 Z M 433.7466297307184 347.3948109650105 L 433.0962138438157 348.74646150197066 L 438.05226581266953 351.131319753947 L 438.7026816995722 349.77966921698686 L 433.7466297307184 347.3948109650105 Z M 442.30708313146596 351.5141115820606 L 441.65666724456327 352.86576211902076 L 446.6127192134171 355.2506203709971 L 447.2631351003198 353.89896983403696 L 442.30708313146596 351.5141115820606 Z M 450.86753653221353 355.6334121991107 L 450.21712064531084 356.98506273607086 L 452.9107595569989 358.28124506562574 L 452.9107595569988 358.28124506562574 L 453.5611754439015 356.9295945286656 L 453.5611754439016 356.9295945286656 L 450.86753653221353 355.6334121991107 Z" fill-opacity="0.8"/><path fill="rgb(97,97,97)" stroke="none" paint-order="stroke fill markers" d=" M 428.864972454279 341.7988359863358 C 428.7820404914561 341.7988359863358 428.6983151871518 341.8126099740121 428.61717734611574 341.8410289439759 L 424.6130444983901 343.2434982440909 C 424.22211671228115 343.38042282662343 424.0162064316372 343.80833171846086 424.15313101416984 344.1992595045698 L 425.55560031428485 348.2033923522954 C 425.6558761666196 348.4896858448762 425.91873725184934 348.6873843204737 426.2216118572907 348.7043012893011 C 426.2356645114643 348.70508619601935 426.24967490213896 348.7054747558222 426.2636298373846 348.7054747558222 C 426.5504433871727 348.7054747558222 426.81383149746114 348.5413396240347 426.9392629551145 348.2806764076174 L 429.54092650272514 342.8740742597769 C 429.67246083756345 342.6007284545882 429.6263839144126 342.275063665987 429.4241813304309 342.0489368752552 C 429.27928455863605 341.88689620619874 429.0746645122578 341.7988359863358 428.864972454279 341.7988359863358 Z" fill-opacity="0.8"/><path fill="rgb(97,97,97)" stroke="none" paint-order="stroke fill markers" d=" M 455.2124323919853 354.47732037502055 C 454.9256188421972 354.47732037502055 454.6622307319089 354.6414555068081 454.5367992742555 354.9021187232254 L 451.93513572664483 360.3087208710658 C 451.8036013918065 360.5820666762545 451.8496783149574 360.9077314648557 452.05188089893915 361.1338582555875 C 452.1967776707339 361.29589892464395 452.4013977171122 361.38395914450695 452.6110897750911 361.38395914450695 C 452.69402173791394 361.38395914450695 452.7777470422182 361.37018515683064 452.85888488325423 361.34176618686683 L 456.8630177309798 359.9392968867518 C 457.2539455170888 359.80237230421926 457.45985579773264 359.37446341238194 457.32293121520013 358.9835356262729 L 455.9204619150851 354.9794027785473 C 455.8201860627504 354.69310928596656 455.5573249775206 354.495410810369 455.25445037207925 354.47849384154165 C 455.2403977179057 354.4777089348234 455.226387327231 354.47732037502055 455.2124323919853 354.47732037502055 Z" fill-opacity="0.8"/><path fill="rgb(97,97,97)" stroke="none" paint-order="stroke fill markers" d=" M 362.1427991290386 276.5111358737447 L 362.13572808961095 282.0111313283248 L 363.6357268499509 282.0130597936232 L 363.6427978893786 276.5130643390431 L 362.1427991290386 276.5111358737447 Z M 362.13058551548176 286.01112802256483 L 362.123514476054 291.5111234771449 L 363.623513236394 291.5130519424433 L 363.6305842758217 286.01305648786325 L 362.13058551548176 286.01112802256483 Z M 362.11837190192483 295.51112017138496 L 362.1161220257433 297.26111872511495 L 362.1161220257819 297.26111872511495 L 363.6161207860888 297.2630471904134 L 363.6161207860833 297.2630471904134 L 363.6183706622648 295.5130486366834 L 362.11837190192483 295.51112017138496 Z M 363.6161207860833 297.2630471904134 L 363.6161207860833 297.26304719041343 L 363.616120786133 297.26304719041343 L 363.6161207860888 297.2630471904134 Z" fill-opacity="0.8"/><path fill="rgb(97,97,97)" stroke="none" paint-order="stroke fill markers" d=" M 359.86515282129386 297.25822540293217 C 359.56219343791173 297.25822540293217 359.2889412674241 297.4405148403793 359.17261957170854 297.7203222354529 C 359.0561736085204 298.00042855118454 359.1199256383815 298.32309915113177 359.33414818953514 298.53787323949626 L 362.3302887796183 301.5417276907732 C 362.47679344109116 301.68860954303165 362.669041101851 301.7620798625077 362.86130629948974 301.7620798625077 C 363.0529246372362 301.7620798625077 363.2445603940573 301.6891030806725 363.3909480748261 301.54309132166304 L 366.39480252610304 298.5469507315799 C 366.60957661446747 298.3327281804262 366.674158111634 298.0102225717843 366.55843276653906 297.7298177662651 C 366.44270742144425 297.449412960746 366.1694653595028 297.2663298840629 365.8661189265933 297.26593988836106 L 359.8661238852332 297.2582260271672 C 359.8658001634525 297.25822561097607 359.865476475421 297.25822540293217 359.86515282129386 297.25822540293217 Z" fill-opacity="0.8"/><path fill="rgb(97,97,97)" stroke="none" paint-order="stroke fill markers" d=" M 362.9011113123851 269.2915249273708 C 362.7094929746387 269.2915249273708 362.51785721781755 269.36450170920597 362.3714695370488 269.5105134682155 L 359.36761508577183 272.5066540582986 C 359.1528409974074 272.72087660945226 359.08825950024095 273.04338221809417 359.2039848453358 273.32378702361336 C 359.31971019043067 273.6041918291325 359.5929522523721 273.7872749058156 359.89629868528164 273.7876649015174 L 365.89629372664166 273.79537876271127 C 365.8966174484224 273.7953791789024 365.89694113645385 273.7953793869463 365.897264790581 273.7953793869463 C 366.2002241739632 273.7953793869463 366.47347634445083 273.61308994949917 366.58979804016633 273.3332825544256 C 366.7062440033546 273.053176238694 366.6424919734934 272.7305056387467 366.4282694223397 272.51573155038227 L 363.43212883225664 269.5118770991053 C 363.28562417078376 269.36499524684683 363.09337651002386 269.2915249273708 362.9011113123851 269.2915249273708 Z" fill-opacity="0.8"/><path fill="rgb(97,97,97)" stroke="none" paint-order="stroke fill markers" d=" M 429.0391135110674 177.59234531964236 L 427.49268323128865 178.411523804335 L 428.194836218168 179.7370354727168 L 429.7412664979468 178.91785698802414 L 429.03911351106746 177.59234531964236 Z M 423.95798544893717 180.28393176934674 L 419.0977759982038 182.85849272123787 L 419.79992898508317 184.18400438961967 L 424.6601384358165 181.60944343772854 L 423.95798544893717 180.28393176934674 Z M 415.56307821585233 184.7309006862496 L 410.70286876511904 187.30546163814077 L 411.4050217519984 188.63097330652258 L 416.2652312027317 186.05641235463142 L 415.56307821585233 184.7309006862496 Z" fill-opacity="0.8"/><path fill="rgb(97,97,97)" stroke="none" paint-order="stroke fill markers" d=" M 428.6487190342089 174.50296691710298 C 428.42886199589555 174.50296691710298 428.21555421345727 174.59983159623823 428.0706618008563 174.77504593090075 C 427.87734688979407 175.00881623615055 427.8438868441118 175.336018104612 427.98588403074837 175.60407781706965 L 430.79449597826596 180.9061244905969 C 430.9253258970126 181.1531028373569 431.18136235387277 181.30506258042328 431.4570256847613 181.30506258042328 C 431.4805555187088 181.30506258042328 431.5042283509518 181.30395542580433 431.5279785216435 181.30170570495085 C 431.8299733742422 181.27309942138524 432.084999859449 181.06539258657997 432.17413952631057 180.77543857255816 L 433.4208568893154 176.72010926203572 C 433.4793081041169 176.52997881895834 433.45983628490785 176.32441596915987 433.3667250096526 176.14864219319506 C 433.2736137343973 175.97286841723027 433.1144901939399 175.8412821875826 432.92435975086255 175.78283097278103 L 428.86903044034017 174.53611360977624 C 428.7964012896934 174.51378545434466 428.722194428181 174.50296691710298 428.6487190342089 174.50296691710298 Z" fill-opacity="0.8"/><path fill="rgb(97,97,97)" stroke="none" paint-order="stroke fill markers" d=" M 408.57110533058386 185.1386227403995 C 408.54757549663634 185.1386227403995 408.52390266439335 185.13972989501846 408.5001524937016 185.14197961587195 C 408.1981576411028 185.17058589943755 407.943131155896 185.3782927342428 407.85399148903446 185.6682467482646 L 406.60727412602955 189.72357605878705 C 406.54882291122806 189.9137065018644 406.5682947304372 190.11926935166287 406.66140600569247 190.29504312762768 C 406.7545172809477 190.4708169035925 406.91364082140507 190.60240313324013 407.1037712644824 190.6608543480417 L 411.15910057500486 191.90757171104653 C 411.23172972565163 191.9298998664781 411.305936587164 191.94071840371979 411.3794119811361 191.94071840371979 C 411.5992690194495 191.94071840371979 411.81257680188776 191.84385372458453 411.9574692144887 191.66863938992202 C 412.1507841255509 191.43486908467221 412.1842441712332 191.10766721621073 412.04224698459666 190.8396075037531 L 409.23363503707907 185.53756083022586 C 409.10280511833247 185.2905824834659 408.84676866147225 185.1386227403995 408.57110533058386 185.1386227403995 Z" fill-opacity="0.8"/><path fill="rgb(97,97,97)" stroke="none" paint-order="stroke fill markers" d=" M 574.351282995396 120.32888708087977 L 574.351282995396 120.32888708087981 L 574.3512829953943 120.32888708087981 L 574.3512829953969 120.32888708087977 Z M 574.3512829953943 120.32888708087981 L 571.8516123492578 120.36946614981059 L 571.9205967664402 124.61890624824542 L 574.4202674125784 124.57832717931461 L 574.351282995396 120.32888708087981 Z M 574.550120433157 132.57727324695668 L 572.0504497870188 132.6178523158875 L 572.2208818765282 143.1164690296677 L 574.7205525226664 143.0758899607369 L 574.550120433157 132.57727324695668 Z M 574.850405543245 151.074836028379 L 572.3507348971068 151.1154150973098 L 572.5211669866163 161.61403181109 L 575.0208376327545 161.5734527421592 L 574.850405543245 151.074836028379 Z M 575.1506906533331 169.57239880980129 L 572.6510200071949 169.6129778787321 L 572.8214520967043 180.11159459251232 L 575.3211227428425 180.0710155235815 L 575.1506906533331 169.57239880980129 Z M 575.4509757634211 188.0699615912236 L 572.9513051172829 188.1105406601544 L 573.1217372067923 198.6091573739346 L 575.6214078529305 198.5685783050038 L 575.4509757634211 188.0699615912236 Z M 575.7512608735091 206.56752437264586 L 573.2515902273709 206.60810344157667 L 573.4220223168803 217.10672015535692 L 575.9216929630185 217.06614108642611 L 575.7512608735091 206.56752437264586 Z M 576.0515459835971 225.06508715406818 L 573.5518753374589 225.105666222999 L 573.7223074269684 235.6042829367792 L 576.2219780731066 235.5637038678484 L 576.0515459835971 225.06508715406818 Z M 576.3518310936852 243.56264993549047 L 573.852160447547 243.60322900442128 L 574.0225925370564 254.1018457182015 L 576.5222631831946 254.0612666492707 L 576.3518310936852 243.56264993549047 Z M 576.6521162037732 262.0602127169128 L 574.152445557635 262.1007917858436 L 574.3228776471444 272.5994084996238 L 576.8225482932826 272.558829430693 L 576.6521162037732 262.0602127169128 Z M 576.9524013138612 280.5577754983351 L 574.452730667723 280.5983545672659 L 574.6231627572324 291.0969712810461 L 577.1228334033706 291.05639221211527 L 576.9524013138612 280.5577754983351 Z M 577.2526864239492 299.05533827975734 L 574.753015777811 299.09591734868815 L 574.9234478673204 309.59453406246837 L 577.4231185134586 309.55395499353756 L 577.2526864239492 299.05533827975734 Z M 577.5529715340373 317.5529010611797 L 575.0533008878991 317.5934801301105 L 575.2237329774085 328.09209684389066 L 577.7234036235467 328.05151777495985 L 577.5529715340373 317.5529010611797 Z M 577.8532566441253 336.05046384260197 L 575.3535859979871 336.0910429115328 L 575.5240180874965 346.589659625313 L 578.0236887336347 346.5490805563822 L 577.8532566441253 336.05046384260197 Z M 578.1535417542133 354.54802662402426 L 575.6538711080751 354.58860569295507 L 575.8243031975845 365.0872224067353 L 578.3239738437227 365.0466433378045 L 578.1535417542133 354.54802662402426 Z M 578.4538268643013 373.04558940544655 L 575.9541562181631 373.08616847437736 L 576.1245883076725 383.5847851881576 L 578.6242589538107 383.54420611922677 L 578.4538268643013 373.04558940544655 Z M 578.7541119743893 391.54315218686884 L 576.2544413282511 391.58373125579965 L 576.4248734177606 402.08234796957987 L 578.9245440638988 402.04176890064906 L 578.7541119743893 391.54315218686884 Z M 579.0543970844774 410.0407149682912 L 576.5547264383392 410.081294037222 L 576.7251585278486 420.57991075100216 L 579.2248291739868 420.53933168207135 L 579.0543970844774 410.0407149682912 Z M 579.3546821945654 428.5382777497135 L 576.8550115484272 428.5788568186443 L 577.0254436379366 439.0774735324245 L 579.5251142840748 439.0368944634937 L 579.3546821945654 428.5382777497135 Z" fill-opacity="0.8"/><path fill="rgb(97,97,97)" stroke="none" paint-order="stroke fill markers" d=" M 573.000127219396 112.84999896650685 C 572.6734105016562 112.84999896650685 572.3470775515308 112.97729625674778 572.1018861002837 113.23057983509875 L 567.1837029458691 118.31107926523669 C 566.8320553142902 118.67433242921072 566.7338515996024 119.21364476999884 566.9348840402823 119.67753578707766 C 567.1332065368991 120.13517349148975 567.5842223406228 120.43050051757213 568.0816882714848 120.43050051757213 C 568.0884858101857 120.43050051757213 568.0952920217718 120.43044537590613 568.1021063800506 120.43033475320681 L 578.1007889646032 120.26801847748357 C 578.6063001650143 120.25981212682757 579.0570920909568 119.94790122607219 579.2429611728213 119.47772934012085 C 579.4288302546859 119.0075574541695 579.313172759013 118.47171688627691 578.9499195950389 118.12006925469825 L 573.8694201649009 113.20188610028356 C 573.6266891328276 112.96691005326042 573.3132319481309 112.84999896650685 573.000127219396 112.84999896650685 Z" fill-opacity="0.8"/><path fill="rgb(97,97,97)" stroke="none" paint-order="stroke fill markers" d=" M 583.4183117285149 446.5694994824277 C 583.411514189814 446.5694994824277 583.404707978228 446.5695546240937 583.3978936199492 446.569665246793 L 573.3992110353965 446.73198152251626 C 572.8936998349855 446.74018787317226 572.4429079090431 447.05209877392764 572.2570388271785 447.52227065987887 C 572.0711697453139 447.99244254583033 572.1868272409869 448.5282831137228 572.5500804049609 448.8799307453016 L 577.630579835099 453.79811389971616 C 577.8733108671723 454.03308994673927 578.186768051869 454.15000103349286 578.4998727806039 454.15000103349286 C 578.8265894983437 454.15000103349286 579.1529224484691 454.02270374325195 579.3981138997161 453.76942016490096 L 584.3162970541307 448.68892073476303 C 584.6679446857096 448.325667570789 584.7661484003975 447.786355230001 584.5651159597174 447.32246421292206 C 584.3667934631006 446.8648265085101 583.915777659377 446.5694994824277 583.4183117285149 446.5694994824277 Z" fill-opacity="0.8"/><path fill="none" stroke="rgb(97,97,97)" paint-order="fill stroke markers" d=" M 298.8661099539222 269.76470618091025 L 298.8661099539222 472.70013478319737" stroke-opacity="0.8" stroke-linejoin="round" stroke-miterlimit="10" stroke-width="1.5" stroke-dasharray="5.5,4"/><path fill="rgb(97,97,97)" stroke="none" paint-order="stroke fill markers" d=" M 308.9999999999999 453.85 L 308.9999999999999 456.35 L 319.4999999999999 456.35 L 319.4999999999999 453.85 Z M 327.4999999999999 453.85 L 327.4999999999999 456.35 L 337.9999999999999 456.35 L 337.9999999999999 453.85 Z M 345.9999999999999 453.85 L 345.9999999999999 456.35 L 356.4999999999999 456.35 L 356.4999999999999 453.85 Z M 364.4999999999999 453.85 L 364.4999999999999 456.35 L 374.9999999999999 456.35 L 374.9999999999999 453.85 Z M 382.9999999999999 453.85 L 382.9999999999999 456.35 L 393.4999999999999 456.35 L 393.4999999999999 453.85 Z M 401.4999999999999 453.85 L 401.4999999999999 456.35 L 411.9999999999999 456.35 L 411.9999999999999 453.85 Z M 419.9999999999999 453.85 L 419.9999999999999 456.35 L 430.4999999999999 456.35 L 430.4999999999999 453.85 Z M 438.4999999999999 453.85 L 438.4999999999999 456.35 L 448.9999999999999 456.3500000000001 L 448.9999999999999 453.8500000000001 L 438.4999999999999 453.85 Z M 456.9999999999999 453.8500000000001 L 456.9999999999999 456.3500000000001 L 467.4999999999999 456.3500000000001 L 467.4999999999999 453.8500000000001 Z M 475.4999999999999 453.8500000000001 L 475.4999999999999 456.3500000000001 L 485.9999999999999 456.3500000000001 L 485.9999999999999 453.8500000000001 Z M 493.9999999999999 453.8500000000001 L 493.9999999999999 456.3500000000001 L 504.4999999999999 456.3500000000001 L 504.4999999999999 453.8500000000001 Z M 512.4999999999999 453.8500000000001 L 512.4999999999999 456.3500000000001 L 522.9999999999999 456.3500000000001 L 522.9999999999999 453.8500000000001 Z M 530.9999999999999 453.8500000000001 L 530.9999999999999 456.3500000000001 L 541.4999999999999 456.3500000000001 L 541.4999999999999 453.8500000000001 Z M 549.4999999999999 453.8500000000001 L 549.4999999999999 456.3500000000001 L 559.9999999999999 456.3500000000001 L 559.9999999999999 453.8500000000001 Z M 567.9999999999999 453.8500000000001 L 567.9999999999999 456.3500000000001 L 572.2499999999999 456.3500000000001 L 572.2499999999999 453.8500000000001 Z" fill-opacity="0.8"/><path fill="rgb(97,97,97)" stroke="none" paint-order="stroke fill markers" d=" M 573.4997245586852 448.849963462531 C 573.3386969681382 448.849963462531 573.1763038221551 448.8810890965862 573.0216457095436 448.94515058436093 C 572.5545527224768 449.1386268344933 572.2499999999999 449.59442219398784 572.2499999999999 450.1000000000001 L 572.2499999999999 460.1000000000001 C 572.2499999999999 460.6055778060123 572.5545527224768 461.06137316550684 573.0216457095436 461.2548494156392 C 573.1763038221551 461.31891090341395 573.3386969681382 461.3500365374692 573.4997245586852 461.3500365374692 C 573.8250268282322 461.3500365374692 574.144756176189 461.22301077677736 574.3838834764831 460.98388347648324 L 579.3838834764831 455.98388347648324 C 579.8720388411722 455.49572811179416 579.8720388411722 454.704271888206 579.3838834764831 454.2161165235169 L 574.3838834764831 449.2161165235169 C 574.144756176189 448.9769892232228 573.8250268282322 448.849963462531 573.4997245586852 448.849963462531 Z" fill-opacity="0.8"/><path fill="rgb(97,97,97)" stroke="none" paint-order="stroke fill markers" d=" M 303.8663853952369 448.849963462531 C 303.54108312569 448.849963462531 303.2213537777331 448.9769892232228 302.98222647743904 449.21611652351686 L 297.98222647743904 454.21611652351686 C 297.49407111274996 454.70427188820594 297.49407111274996 455.4957281117941 297.98222647743904 455.9838834764832 L 302.98222647743904 460.9838834764832 C 303.2213537777331 461.22301077677724 303.54108312569 461.35003653746907 303.8663853952369 461.35003653746907 C 304.02741298578394 461.35003653746907 304.18980613176706 461.31891090341384 304.3444642443786 461.2548494156391 C 304.8115572314453 461.0613731655067 305.1161099539222 460.60557780601226 305.1161099539222 460.1 L 305.1161099539222 450.1 C 305.1161099539222 449.5944221939878 304.8115572314453 449.1386268344933 304.3444642443786 448.94515058436093 C 304.18980613176706 448.8810890965862 304.02741298578394 448.849963462531 303.8663853952369 448.849963462531 Z" fill-opacity="0.8"/><path fill="none" stroke="rgb(97,97,97)" paint-order="fill stroke markers" d=" M 571.9 114.0999999999998 L 439.8999999999999 114.0999999999998" stroke-opacity="0.8" stroke-linejoin="round" stroke-miterlimit="10" stroke-width="2.5" stroke-dasharray="6.5,4"/><path fill="rgb(97,97,97)" stroke="none" paint-order="stroke fill markers" d=" M 470.8362771360841 119.97049682546691 L 469.3413438010892 120.09368093126307 L 469.8135495399745 125.82425871541048 L 469.8135495399744 125.82425871541048 L 471.30848287496923 125.70107460961434 L 471.3084828749694 125.70107460961434 L 470.8362771360841 119.97049682546691 Z" fill-opacity="0.8"/><path fill="rgb(97,97,97)" stroke="none" paint-order="stroke fill markers" d=" M 473.61269717960243 125.51375328219544 C 473.592190186379 125.51375328219544 473.57157109610233 125.51459371957583 473.55088287746185 125.51629845092009 L 467.571149537482 126.00903487410471 C 467.26882749122547 126.03394653408236 467.01128044240215 126.23851963843418 466.91860217683524 126.52736206874363 C 466.8259239112683 126.81620449905313 466.91636582664216 127.13243368386264 467.1477549993531 127.32859244917199 L 470.38398988093536 130.0720909075696 C 470.51997117796907 130.18736822594533 470.6920022093296 130.25000186763822 470.8689481047805 130.25000186763822 C 470.88943845397563 130.25000186763822 470.9099947098222 130.24916197186235 470.9305685248604 130.2474666674973 C 471.12880901068615 130.23113143942567 471.3124409382407 130.13671453340152 471.4410673795321 129.9849865910267 L 474.18456583792977 126.74875170944449 C 474.3807246032392 126.51736253673357 474.4181828386011 126.1905942427004 474.27947382748584 125.92081837148322 C 474.1502568212868 125.66950354959002 473.89186394087744 125.51375328219544 473.61269717960243 125.51375328219544 Z" fill-opacity="0.8"/><path fill="rgb(97,97,97)" stroke="none" paint-order="stroke fill markers" d=" M 469.60002836718166 113.34999813236142 C 469.5795380179865 113.34999813236142 469.55898176214004 113.35083802813728 469.53840794710186 113.35253333250233 C 469.3401674612761 113.36886856057396 469.1565355337215 113.46328546659811 469.02790909243015 113.61501340897291 L 466.2844106340325 116.85124829055519 C 466.0882518687231 117.08263746326611 466.05079363336114 117.40940575729928 466.1895026444764 117.67918162851646 C 466.31871965067546 117.93049645040966 466.5771125310848 118.08624671780424 466.85627929235983 118.08624671780424 C 466.87678628558325 118.08624671780424 466.89740537585993 118.08540628042385 466.9180935945004 118.08370154907959 L 472.8978269344803 117.59096512589497 C 473.2001489807368 117.56605346591738 473.4576960295601 117.36148036156544 473.55037429512697 117.072637931256 C 473.64305256069395 116.78379550094655 473.5526106453201 116.4675663161371 473.3212214726092 116.27140755082769 L 470.0849865910269 113.52790909243004 C 469.9490052939932 113.41263177405426 469.7769742626326 113.34999813236142 469.60002836718166 113.34999813236142 Z" fill-opacity="0.8"/><path fill="rgb(97,97,97)" stroke="none" paint-order="stroke fill markers" d=" M 512.9807832991896 187.56986678059042 L 512.2141046566666 188.85913163278292 L 513.7182469842246 189.75359004905985 L 514.4849256267476 188.46432519686735 L 512.9807832991896 187.56986678059042 Z M 517.9229652325943 190.50880157692885 L 517.1562865900713 191.79806642912135 L 521.8835910481105 194.60922145170588 L 522.6502696906334 193.31995659951338 L 517.9229652325943 190.50880157692885 Z M 526.0883092964802 195.36443297957487 L 525.3216306539573 196.65369783176737 L 530.0489351119965 199.46485285435193 L 530.8156137545194 198.17558800215943 L 526.0883092964802 195.36443297957487 Z M 534.2536533603661 200.22006438222093 L 533.4869747178432 201.50932923441343 L 535.0871112995723 202.46087192189555 L 535.8537899420952 201.17160706970307 L 534.2536533603661 200.22006438222093 Z" fill-opacity="0.8"/><path fill="rgb(97,97,97)" stroke="none" paint-order="stroke fill markers" d=" M 513.4861749137312 184.50259389203015 C 513.4247612920324 184.50259389203015 513.3627344361491 184.51015591266963 513.3014067105721 184.52574438761525 L 509.1895197211409 185.57091680695413 C 508.99673762249455 185.6199187695483 508.831317330553 185.7434961298315 508.72964942135053 185.9144632791175 C 508.6279815121481 186.08543042840353 508.5983940914278 186.2897826280386 508.64739605402195 186.48256472668498 L 509.69256847336084 190.5944517161161 C 509.7672977777225 190.88844957584513 510.0117687914007 191.10848266620383 510.31198506329775 191.15194990149445 C 510.34800101583136 191.15716452185163 510.38396836372834 191.15971480780502 510.41964812395986 191.15971480780502 C 510.6813822552227 191.15971480780502 510.92764079983397 191.02247953663493 511.064086692882 190.79302891107176 L 514.1308012629743 185.63596950230163 C 514.2858475453755 185.37524002416558 514.2685673240782 185.046786022312 514.0870183392306 184.80376508379754 C 513.9433403318513 184.61143812462174 513.7191709276055 184.50259389203018 513.4861749137312 184.50259389203015 Z" fill-opacity="0.8"/><path fill="rgb(97,97,97)" stroke="none" paint-order="stroke fill markers" d=" M 537.648246474802 198.871023894681 C 537.3865123435392 198.871023894681 537.1402537989278 199.0082591658511 537.0038079058799 199.23770979141426 L 533.9370933357876 204.39476920018438 C 533.7820470533863 204.65549867832044 533.7993272746837 204.983952680174 533.9808762595312 205.22697361868848 C 534.1245542669104 205.41930057786428 534.3487236711563 205.52814481045584 534.5817196850306 205.52814481045587 C 534.6431333067295 205.52814481045587 534.7051601626127 205.5205827898164 534.7664878881898 205.50499431487077 L 538.8783748776209 204.45982189553183 C 539.0711569762674 204.41081993293773 539.2365772682089 204.28724257265452 539.3382451774113 204.1162754233685 C 539.4399130866138 203.9453082740825 539.469500507334 203.7409560744474 539.42049854474 203.54817397580103 L 538.375326125401 199.4362869863699 C 538.3005968210394 199.14228912664095 538.0561258073612 198.9222560362822 537.7559095354641 198.87878880099157 C 537.7198935829305 198.8735741806344 537.6839262350335 198.871023894681 537.648246474802 198.871023894681 Z" fill-opacity="0.8"/><text fill="rgb(0,0,0)" stroke="none" font-family="geogebra-sans-serif, sans-serif" font-size="16px" font-style="normal" font-weight="normal" text-decoration="normal" x="585" y="313" text-anchor="start" dominant-baseline="alphabetic" fill-opacity="1">L</text><text fill="rgb(0,0,0)" stroke="none" font-family="geogebra-sans-serif, sans-serif" font-size="14px" font-style="normal" font-weight="normal" text-decoration="normal" x="594" y="320" text-anchor="start" dominant-baseline="alphabetic" fill-opacity="1">y</text><text fill="rgb(0,0,0)" stroke="none" font-family="geogebra-sans-serif, sans-serif" font-size="16px" font-style="normal" font-weight="normal" text-decoration="normal" x="426" y="478" text-anchor="start" dominant-baseline="alphabetic" fill-opacity="1">L</text><text fill="rgb(0,0,0)" stroke="none" font-family="geogebra-sans-serif, sans-serif" font-size="14px" font-style="normal" font-weight="normal" text-decoration="normal" x="435" y="485" text-anchor="start" dominant-baseline="alphabetic" fill-opacity="1">x</text><text fill="rgb(0,0,0)" stroke="none" font-family="geogebra-sans-serif, sans-serif" font-size="16px" font-style="normal" font-weight="normal" text-decoration="normal" x="368" y="291" text-anchor="start" dominant-baseline="alphabetic" fill-opacity="1">ep</text><text fill="rgb(0,0,0)" stroke="none" font-family="geogebra-sans-serif, sans-serif" font-size="16px" font-style="normal" font-weight="normal" text-decoration="normal" x="399" y="173" text-anchor="start" dominant-baseline="alphabetic" fill-opacity="1">ep</text><g transform="scale(19,19)"><g transform="translate(24.905027200625263,4.220473684210526)"><path fill="rgb(0,0,0)" stroke="none" paint-order="stroke fill markers" d=" M 0.187 -0.231 L 0.134 -0.231 Q 0.11800000000000001 -0.166 0.11800000000000001 -0.127 Q 0.11800000000000001 -0.048 0.164 -0.021 Q 0.181 -0.011 0.20500000000000002 -0.011 Q 0.295 -0.011 0.367 -0.07100000000000001 Q 0.388 -0.088 0.405 -0.11 Q 0.41200000000000003 -0.12 0.418 -0.12 Q 0.427 -0.12 0.43 -0.107 Q 0.43 -0.096 0.396 -0.064 Q 0.313 0.011 0.203 0.011 Q 0.113 0.011 0.07100000000000001 -0.066 Q 0.046 -0.111 0.046 -0.17 Q 0.046 -0.301 0.148 -0.382 Q 0.223 -0.442 0.308 -0.442 Q 0.38 -0.442 0.406 -0.392 Q 0.41500000000000004 -0.376 0.41500000000000004 -0.357 Q 0.41500000000000004 -0.305 0.37 -0.271 L 0.369 -0.27 Q 0.356 -0.261 0.34 -0.254 Q 0.28500000000000003 -0.231 0.187 -0.231 M 0.14 -0.253 L 0.181 -0.253 Q 0.382 -0.253 0.382 -0.357 Q 0.382 -0.397 0.343 -0.41400000000000003 L 0.343 -0.41400000000000003 Q 0.329 -0.419 0.308 -0.42 Q 0.252 -0.42 0.20500000000000002 -0.374 Q 0.16 -0.33 0.14 -0.253 Z"/></g><g transform="translate(25.371027200625264,4.220473684210526)"><path fill="rgb(0,0,0)" stroke="none" paint-order="stroke fill markers" d=" M 0.045 0.122 L 0.045 0.122 L 0.157 -0.323 Q 0.164 -0.353 0.164 -0.374 Q 0.164 -0.42 0.133 -0.42 Q 0.092 -0.42 0.066 -0.325 Q 0.063 -0.314 0.06 -0.301 Q 0.049 -0.279 0.043000000000000003 -0.278 Q 0.031 -0.278 0.031 -0.28800000000000003 Q 0.031 -0.304 0.049 -0.355 Q 0.056 -0.373 0.062 -0.385 Q 0.08600000000000001 -0.434 0.122 -0.441 Q 0.129 -0.442 0.136 -0.442 Q 0.19 -0.442 0.215 -0.398 L 0.215 -0.397 Q 0.223 -0.384 0.226 -0.367 Q 0.289 -0.442 0.357 -0.442 Q 0.428 -0.442 0.466 -0.378 Q 0.488 -0.333 0.49 -0.28200000000000003 Q 0.49 -0.17400000000000002 0.41400000000000003 -0.082 Q 0.34500000000000003 0.002 0.263 0.01 Q 0.256 0.011 0.249 0.011 Q 0.186 0.011 0.157 -0.053 Q 0.12 0.079 0.109 0.14100000000000001 Q 0.108 0.146 0.108 0.147 Q 0.108 0.158 0.121 0.161 L 0.122 0.161 L 0.122 0.161 Q 0.134 0.163 0.158 0.163 Q 0.18 0.163 0.182 0.17400000000000002 Q 0.182 0.194 0.164 0.194 L 0.066 0.191 L 0.065 0.191 L -0.017 0.194 L -0.019 0.194 Q -0.032 0.194 -0.032 0.182 Q -0.026000000000000002 0.164 -0.009000000000000001 0.163 Q 0.028 0.163 0.036000000000000004 0.15 L 0.037 0.149 Q 0.039 0.145 0.041 0.138 Q 0.042 0.133 0.045 0.122 M 0.221 -0.312 L 0.221 -0.312 L 0.17200000000000001 -0.116 Q 0.169 -0.10400000000000001 0.169 -0.1 Q 0.169 -0.077 0.187 -0.048 Q 0.198 -0.029 0.215 -0.019 Q 0.23 -0.011 0.248 -0.011 Q 0.299 -0.011 0.34400000000000003 -0.075 Q 0.357 -0.093 0.367 -0.114 Q 0.394 -0.171 0.41200000000000003 -0.268 Q 0.418 -0.303 0.418 -0.326 Q 0.418 -0.405 0.37 -0.418 Q 0.362 -0.42 0.354 -0.42 Q 0.316 -0.42 0.273 -0.382 Q 0.23 -0.34600000000000003 0.221 -0.312 Z"/></g><rect fill="rgb(0,0,0)" stroke="none" x="24.905027200625263" y="4.626982184210526" width="0.9690000000000001" height="0.039999"/><g transform="translate(25.139527200625263,5.582932684210526)"><path fill="rgb(0,0,0)" stroke="none" paint-order="stroke fill markers" d=" M 0.449 -0.17400000000000002 L 0.449 -0.17400000000000002 L 0.421 0 L 0.05 0 Q 0.05 -0.025 0.056 -0.032 L 0.061 -0.037 L 0.253 -0.251 Q 0.358 -0.369 0.358 -0.47200000000000003 Q 0.358 -0.561 0.304 -0.607 L 0.303 -0.608 L 0.302 -0.608 Q 0.27 -0.635 0.224 -0.635 Q 0.152 -0.635 0.109 -0.5730000000000001 Q 0.097 -0.555 0.089 -0.533 Q 0.092 -0.534 0.10200000000000001 -0.534 Q 0.14200000000000002 -0.534 0.153 -0.498 L 0.153 -0.497 Q 0.155 -0.49 0.155 -0.482 Q 0.155 -0.442 0.117 -0.431 Q 0.109 -0.429 0.10300000000000001 -0.429 Q 0.066 -0.429 0.054 -0.46 Q 0.05 -0.47100000000000003 0.05 -0.485 Q 0.05 -0.562 0.109 -0.617 Q 0.162 -0.666 0.23700000000000002 -0.666 Q 0.34700000000000003 -0.666 0.40800000000000003 -0.592 Q 0.443 -0.549 0.448 -0.49 Q 0.449 -0.481 0.449 -0.47200000000000003 Q 0.449 -0.399 0.394 -0.333 Q 0.365 -0.299 0.304 -0.243 L 0.243 -0.189 L 0.233 -0.18 L 0.127 -0.077 L 0.307 -0.077 Q 0.395 -0.077 0.402 -0.085 Q 0.41200000000000003 -0.099 0.424 -0.17400000000000002 L 0.449 -0.17400000000000002 Z"/></g></g><text fill="rgb(0,0,0)" stroke="none" font-family="geogebra-sans-serif, sans-serif" font-size="16px" font-style="normal" font-weight="normal" text-decoration="normal" x="422" y="371" text-anchor="start" dominant-baseline="alphabetic" fill-opacity="1">ep</text><text fill="rgb(0,0,0)" stroke="none" font-family="geogebra-sans-serif, sans-serif" font-size="16px" font-style="normal" font-weight="normal" text-decoration="normal" x="518" y="189" text-anchor="start" dominant-baseline="alphabetic" fill-opacity="1">ep</text></g></g></svg>